<?xml version="1.0" standalone="no"?>
<!DOCTYPE svg PUBLIC "-//W3C//DTD SVG 1.1//EN" "http://www.w3.org/Graphics/SVG/1.1/DTD/svg11.dtd" >
<svg xmlns="http://www.w3.org/2000/svg" xmlns:xlink="http://www.w3.org/1999/xlink" version="1.1">
<metadata></metadata>
<defs>
<font id="vijayabold" horiz-adv-x="824" >
<font-face units-per-em="2048" ascent="1638" descent="-410" />
<missing-glyph horiz-adv-x="412" />
<glyph horiz-adv-x="0" />
<glyph unicode="&#xd;" horiz-adv-x="0" />
<glyph unicode=" "  horiz-adv-x="412" />
<glyph unicode="&#x09;" horiz-adv-x="412" />
<glyph unicode="&#xa0;" horiz-adv-x="412" />
<glyph unicode="!" horiz-adv-x="642" d="M91 109q0 54 38 92.5t93 38.5t93 -38.5t38 -92.5q0 -55 -38.5 -93.5t-92.5 -38.5q-55 0 -93 38.5t-38 93.5zM266 312q39 212 58.5 432t60 296.5t105.5 76.5q35 0 62.5 -31t27.5 -74q0 -36 -14 -78.5t-85 -189.5q-117 -247 -185 -432h-30z" />
<glyph unicode="&#x22;" horiz-adv-x="915" d="M271 580l5 310q3 115 52 171t119 56q38 0 62.5 -24t24.5 -57q0 -45 -56 -147l-167 -309h-40zM659 580l7 310q2 84 17 120q21 49 63.5 78t89.5 29q38 0 62 -24t24 -59q0 -24 -7 -42q-10 -28 -50 -102l-166 -310h-40z" />
<glyph unicode="#" d="M64 319v107h131l47 235h-178v105h199l70 348h107l-71 -348h237l69 348h107l-71 -348h113v-105h-133l-49 -235h182v-107h-202l-69 -342h-107l69 342h-234l-73 -342h-103l69 342h-110zM302 426h237l46 235h-236z" />
<glyph unicode="$" d="M64 56l74 260h31q6 -120 30.5 -169.5t76.5 -82.5l122 424q-112 107 -153 182.5t-41 153.5q0 76 40.5 145.5t118 108.5t163.5 39q18 0 54 -3l13 47h62l-16 -56q110 -24 185 -72l-76 -236h-31q9 53 9 86q0 56 -31 102q-22 33 -74 59l-106 -367q152 -151 180 -195 q50 -79 50 -174q0 -152 -110 -242t-271 -90q-18 0 -52 1l-29 -102h-62l32 111q-53 11 -85.5 22t-103.5 48zM332 47q25 -3 41 -3q70 0 124 56.5t54 136.5q0 54 -23 100.5t-82 105.5zM386 895q0 -87 80 -170l97 334q-78 3 -127 -44q-50 -47 -50 -120z" />
<glyph unicode="%" horiz-adv-x="1373" d="M178 736q0 158 106 277q86 97 205 97q88 0 141 -54.5t53 -152.5q0 -161 -98.5 -271t-220.5 -110q-82 0 -134 56t-52 158zM184 -44l1000 1161h100l-1003 -1161h-97zM316 624q0 -27 15 -43t38 -16q27 0 44 14q24 19 41 62q8 21 63 214q30 109 30 152q0 27 -15 43.5 t-37 16.5q-26 0 -40 -11q-27 -20 -46 -66q-14 -33 -65 -220q-28 -100 -28 -146zM779 170q0 153 98.5 263t213.5 110q85 0 140 -56.5t55 -150.5q0 -156 -101.5 -269.5t-221.5 -113.5q-79 0 -131.5 57.5t-52.5 159.5zM919 58q0 -27 14 -42.5t35 -15.5q25 0 42 14q26 21 45 67 q12 27 66 211q29 101 29 145q0 28 -17.5 46t-40.5 18q-29 0 -52.5 -28t-60.5 -148q-60 -199 -60 -267z" />
<glyph unicode="&#x26;" horiz-adv-x="1282" d="M76 207q0 74 31 132t119 124t251 139q-5 44 -8.5 79t-3.5 61q0 161 100 268t236 107q87 0 139.5 -49.5t52.5 -117.5q0 -86 -51 -148q-77 -94 -245 -165q54 -173 74 -224t54 -110q46 50 66 98t20 79q0 26 -15 45t-50 28l10 29h309l-12 -29q-44 -10 -73.5 -35t-110.5 -133 q-57 -77 -113 -136q64 -90 117 -123q34 -23 78 -23q24 0 43 8t45 31h26q-39 -83 -102.5 -125t-143.5 -42q-68 0 -122 27t-114 91q-83 -58 -167.5 -88t-169.5 -30q-124 0 -197 69.5t-73 162.5zM317 307q0 -93 57.5 -156t128.5 -63q31 0 68 13.5t80 40.5q-49 74 -94.5 186.5 t-67.5 213.5q-92 -51 -132 -105.5t-40 -129.5zM662 890q0 -42 5 -89.5t16 -103.5q66 48 97 98q43 68 43 145q0 58 -24 90q-20 23 -50 23q-36 0 -57 -29q-30 -44 -30 -134z" />
<glyph unicode="'" horiz-adv-x="458" d="M257 581l4 308q1 115 50.5 171.5t119.5 56.5q38 0 62.5 -24t24.5 -59q0 -45 -54 -144l-169 -309h-38z" />
<glyph unicode="(" horiz-adv-x="549" d="M83 264q0 166 72 328q86 190 253 338q128 112 308 187l-14 -45q-115 -82 -191 -191q-116 -167 -188.5 -407.5t-72.5 -450.5q0 -135 63 -290l-14 -47q-216 290 -216 578z" />
<glyph unicode=")" horiz-adv-x="549" d="M-186 -314l15 44q92 66 156 145t131.5 218.5t110.5 299.5q55 207 55 387q0 134 -64 291l13 46q217 -290 217 -578q0 -166 -73 -329q-84 -189 -253 -336q-128 -113 -308 -188z" />
<glyph unicode="*" d="M198 858q0 33 24 57t60 24q50 0 97 -48.5t61 -58.5q19 -14 63 -33q-2 46 -9 70.5t-33 75t-26 78.5q0 37 26 65.5t57 28.5q35 0 60.5 -26.5t25.5 -68.5q0 -33 -25 -79.5t-32 -71t-11 -72.5q45 18 64.5 31.5t57.5 54.5q50 54 97 54q36 0 60 -23.5t24 -55.5 q0 -35 -29.5 -61.5t-77.5 -26.5q-16 0 -56 2q-19 1 -42 1q-29 0 -90 -3q35 -39 54 -54t66.5 -39.5t67.5 -51.5q15 -20 15 -51q0 -35 -23.5 -59t-56.5 -24q-34 0 -62 29t-38 102q-7 47 -14.5 69t-32.5 64q-27 -43 -35.5 -66.5t-15.5 -66.5q-10 -73 -36.5 -100.5t-62.5 -27.5 q-33 0 -56.5 22.5t-23.5 53.5q0 33 18 58t66.5 52t67 41t54.5 49l-86 3q-23 0 -43 -1q-47 -3 -65 -3q-46 0 -75 26t-29 61z" />
<glyph unicode="+" horiz-adv-x="939" d="M64 493v106h388v386h105v-386h387v-106h-387v-384h-105v384h-388z" />
<glyph unicode="," horiz-adv-x="412" d="M-47 -231q123 70 153 106q24 28 24 57q0 31 -41.5 69t-55.5 65q-10 20 -10 52q0 52 39 90t94 38q54 0 94 -43t40 -106q0 -101 -77 -198.5t-241 -163.5z" />
<glyph unicode="-" horiz-adv-x="549" d="M10 278l53 167h468l-50 -167h-471z" />
<glyph unicode="." horiz-adv-x="412" d="M-22 109q0 55 39 94t93 39q56 0 94.5 -39t38.5 -94q0 -54 -39 -93t-94 -39q-54 0 -93 39t-39 93z" />
<glyph unicode="/" horiz-adv-x="458" d="M-134 -25l704 1139h113l-702 -1139h-115z" />
<glyph unicode="0" d="M91 287q0 186 67 371q55 155 137.5 267.5t150.5 150.5t138 38q78 0 133.5 -45.5t80 -121t24.5 -149.5q0 -128 -33.5 -264t-93 -250.5t-131.5 -191.5q-46 -49 -112 -82t-134 -33q-64 0 -115.5 39t-81.5 113t-30 158zM253 114q0 -39 21 -61.5t53 -22.5q33 0 54 17 q42 37 71 123q66 202 166 556q45 156 45 246q0 41 -21.5 64t-52.5 23q-24 0 -41.5 -9t-38 -37t-51.5 -120q-57 -168 -126 -409q-53 -186 -64 -238q-15 -75 -15 -132z" />
<glyph unicode="1" d="M39 0l8 30q83 1 115 13.5t52.5 39.5t46.5 115l158 544q36 124 37 131q5 21 5 40q0 36 -22 57.5t-63 21.5q-20 0 -80 -7l-6 30l410 99h33l-266 -916q-21 -72 -21 -91t15 -39.5t32 -26.5t104 -11l-9 -30h-549z" />
<glyph unicode="2" d="M6 0v30q227 209 382 385q130 145 163.5 222t33.5 155q0 73 -46 119t-116 46q-111 0 -191 -123l-30 14q42 119 109 181q92 85 217 85q116 0 192 -71.5t76 -165.5q0 -83 -37 -164t-153 -203q-88 -94 -359 -325h210q102 0 142.5 23t75.5 92h38l-127 -300h-580z" />
<glyph unicode="3" d="M20 80q0 37 26 61t63 24q20 0 38 -8q30 -13 91 -54.5t102 -41.5q50 0 87 51q56 75 56 187q0 88 -35.5 154t-91 98t-146.5 42l11 35q111 16 180 47q92 41 133.5 95t41.5 116q0 53 -37.5 90.5t-94.5 37.5q-44 0 -82 -23t-82 -81l-32 16q68 101 136 144.5t152 43.5 q106 0 172 -60t66 -144q0 -66 -32 -115t-95 -85q-46 -27 -144 -54q89 -39 126 -87q54 -72 54 -173q0 -190 -165 -314q-137 -105 -318 -105q-97 0 -146 37q-34 25 -34 66z" />
<glyph unicode="4" d="M29 230l39 135l654 749h106l-219 -749h126l-43 -135h-123l-74 -253h-183l74 253h-357zM147 365h280l134 478z" />
<glyph unicode="5" d="M63 86q0 36 25.5 61t59.5 25q29 0 52 -9q13 -7 82 -62q43 -36 89 -36q61 0 103 53q56 70 56 177q0 96 -46.5 178.5t-126.5 125.5q-62 33 -161 35l223 458h412l-54 -189h-383l-48 -98q116 -19 192 -62t123 -125.5t47 -179.5q0 -116 -62.5 -224.5t-173.5 -172.5t-235 -64 q-90 0 -132 33t-42 76z" />
<glyph unicode="6" d="M99 308q0 170 75.5 328.5t191 267.5t248.5 166q104 44 227 53v-31q-122 -34 -217 -123q-118 -109 -202 -298q75 25 129 25q91 0 152 -68.5t61 -192.5q0 -161 -90 -295q-111 -163 -295 -163q-125 0 -202.5 86.5t-77.5 244.5zM281 148q0 -61 26 -91t66 -30q31 0 56 23 q41 37 77 148q55 176 55 292q0 60 -33 100q-26 31 -61 31q-28 0 -72 -12q-54 -143 -90 -293q-24 -101 -24 -168z" />
<glyph unicode="7" d="M194 802l147 290h572v-37l-641 -1078l-64 37l525 884h-263q-105 0 -154.5 -21.5t-90.5 -74.5h-31z" />
<glyph unicode="8" d="M61 239q0 77 35 141t104 117q50 38 139 73q-51 68 -76.5 132t-25.5 124q0 123 83 205.5t219 82.5q125 0 197.5 -69t72.5 -166q0 -64 -30.5 -116.5t-87.5 -92.5q-37 -26 -114 -53q94 -123 116.5 -174t22.5 -114q0 -147 -101 -249.5t-256 -102.5q-139 0 -218.5 74.5 t-79.5 187.5zM240 177q0 -76 29.5 -111.5t76.5 -35.5q58 0 100 53q59 73 59 176q0 68 -27.5 126t-109.5 149q-41 -36 -58 -63q-26 -41 -48 -122t-22 -172zM444 885q0 -58 20.5 -108.5t78.5 -122.5q43 30 57 64q30 77 30 204q0 79 -24.5 111.5t-57.5 32.5q-42 0 -65 -32 q-39 -54 -39 -149z" />
<glyph unicode="9" d="M70 10q123 33 229 132t191 287q-75 -26 -129 -26q-91 0 -152.5 68.5t-61.5 193.5q0 161 91 295q111 162 295 162q125 0 202 -86t77 -245q0 -170 -75 -328.5t-191 -267.5t-248 -165q-104 -44 -228 -53v33zM350 609q0 -59 34 -99q25 -32 61 -32q28 0 71 12q55 144 91 293 q23 102 23 169q0 60 -26 90t-65 30q-31 0 -56 -22q-42 -37 -77 -148q-56 -176 -56 -293z" />
<glyph unicode=":" horiz-adv-x="549" d="M66 109q0 55 38.5 94t93.5 39q56 0 94.5 -39t38.5 -94q0 -54 -39 -93t-94 -39t-93.5 39t-38.5 93zM212 612q0 55 38.5 94t94.5 39q54 0 93 -39t39 -94t-39 -93.5t-94 -38.5t-93.5 38.5t-38.5 93.5z" />
<glyph unicode=";" horiz-adv-x="549" d="M1 -231q123 70 153 106q23 28 23 57q0 31 -41.5 69t-54.5 65q-11 20 -11 52q0 52 39 90t95 38q54 0 93.5 -43t39.5 -106q0 -101 -76.5 -198.5t-241.5 -163.5zM213 611q0 56 39 95t95 39t95 -39t39 -95q0 -55 -39 -94.5t-95 -39.5q-55 0 -94.5 39.5t-39.5 94.5z" />
<glyph unicode="&#x3c;" horiz-adv-x="939" d="M64 508v65l879 363v-111l-680 -284l680 -279v-113z" />
<glyph unicode="=" horiz-adv-x="939" d="M64 360v104h881v-104h-881zM64 623v105h881v-105h-881z" />
<glyph unicode="&#x3e;" horiz-adv-x="939" d="M64 149v112l681 283l-681 280v112l879 -358v-66z" />
<glyph unicode="?" d="M146 109q0 54 38 92.5t94 38.5q54 0 92.5 -38.5t38.5 -92.5q0 -55 -38.5 -93.5t-92.5 -38.5q-55 0 -93.5 38.5t-38.5 93.5zM223 919q0 95 81 146.5t187 51.5q89 0 157 -29t102.5 -82t34.5 -110q0 -82 -41 -146q-57 -88 -199.5 -176.5t-182.5 -137.5t-52 -128h-33 q0 86 27.5 147t146.5 201q84 100 117 177q22 51 22 108q0 68 -32.5 105t-80.5 37q-35 0 -55.5 -18t-20.5 -40q0 -16 14 -40q29 -51 29 -89q0 -40 -32 -71t-77 -31q-47 0 -79.5 34t-32.5 91z" />
<glyph unicode="@" horiz-adv-x="1372" d="M-6 351q0 211 99.5 391t280 277.5t399.5 97.5q178 0 311 -71.5t200 -200.5t67 -272q0 -166 -72 -304t-179.5 -203.5t-231.5 -65.5q-80 0 -122 39.5t-42 101.5q0 43 20 113q-67 -111 -104 -153q-51 -58 -101 -84q-32 -17 -73 -17q-57 0 -96 45.5t-39 133.5q0 90 26 176.5 t71 162.5t104.5 136.5t133.5 99.5q37 21 81 21q45 0 74.5 -28t39.5 -98l28 96l196 8l-147 -506q-25 -84 -25 -125q0 -26 19 -45t46 -19q55 0 143.5 64t146 182.5t57.5 253.5q0 222 -143 365t-372 143q-198 0 -360 -93t-257 -270t-95 -380q0 -279 177.5 -456.5t452.5 -177.5 q226 0 405.5 121.5t254.5 322.5h49q-97 -237 -281.5 -363t-429.5 -126q-310 0 -511 200t-201 507zM518 221q0 -35 15 -54.5t33 -19.5q15 0 44 23q41 31 88 106t76.5 166.5t29.5 168.5q0 56 -21 85q-15 21 -36 21q-31 0 -60 -34q-41 -45 -86 -153q-83 -192 -83 -309z" />
<glyph unicode="A" horiz-adv-x="1100" d="M-93 0l8 30q43 7 77 30q45 33 130 133l773 924h36l-36 -894q-2 -70 -2 -85q0 -54 22 -79t74 -29l-9 -30h-472l9 30q70 6 80 11q23 11 41.5 47t22.5 125l7 139h-338l-68 -84l-77 -93q-22 -29 -33 -53q-8 -19 -8 -37q0 -20 20.5 -36.5t68.5 -18.5v-30h-326zM386 418h282 l21 356z" />
<glyph unicode="B" horiz-adv-x="1100" d="M-42 0l11 30q66 0 94.5 12t45.5 37.5t41 105.5l195 672q29 102 29 136q0 29 -23.5 47.5t-103.5 21.5l8 30h432q144 0 206 -16q81 -19 125.5 -75t44.5 -127q0 -58 -35 -118t-105.5 -99.5t-216.5 -72.5q151 -42 210 -109t59 -155q0 -83 -58 -164t-154 -118.5t-351 -37.5 h-454zM344 64q40 -2 60 -2q180 0 250 100t70 215q0 54 -27 96.5t-70 59t-144 16.5zM502 609q110 2 173 35t101.5 108.5t38.5 141.5q1 62 -39 102q-38 38 -100 38h-6l-45 -1z" />
<glyph unicode="C" horiz-adv-x="1100" d="M108 407q0 180 95.5 343.5t275.5 265t358 101.5q68 0 168 -29q52 -15 72 -15q40 0 81 44h30l-80 -347h-32q-5 141 -69 211t-167 70q-111 0 -221.5 -95t-187.5 -291q-62 -159 -62 -313q0 -139 68.5 -211.5t186.5 -72.5q96 0 174.5 41.5t159.5 136.5h39 q-100 -150 -202 -210.5t-249 -60.5q-197 0 -317.5 119.5t-120.5 312.5z" />
<glyph unicode="D" horiz-adv-x="1191" d="M-60 0l10 30q79 0 119.5 32.5t67.5 121.5l198 689q19 67 19 111q0 37 -22.5 54.5t-114.5 23.5l9 30h374q295 0 426 -120t131 -335q0 -152 -61 -255q-118 -202 -280.5 -292t-417.5 -90h-458zM365 118q0 -23 19 -37q24 -18 72 -18q113 0 202 71q115 91 175 244.5t60 304.5 q0 110 -34.5 191.5t-107.5 123.5q-51 29 -129 29l-240 -827q-17 -58 -17 -82z" />
<glyph unicode="E" horiz-adv-x="1100" d="M-58 0l10 30q82 0 119.5 31t68.5 136l205 703q17 59 17 93q0 30 -21.5 46.5t-98.5 22.5l8 30h871l-70 -273h-29q-4 80 -25 113q-34 52 -90 75.5t-182 23.5h-102l-121 -423h37q146 0 213 38.5t114 136.5h30l-122 -425h-29q8 43 8 69q0 45 -26.5 73t-68.5 40q-27 8 -113 8 h-63l-104 -366q-14 -48 -14 -72q0 -18 18 -29q25 -17 97 -17q138 0 259.5 58.5t217.5 176.5h33l-113 -299h-934z" />
<glyph unicode="F" horiz-adv-x="1100" d="M0 0l9 30q79 0 115 29.5t65 128.5l195 668q31 105 32 135q-1 28 -25.5 48t-99.5 23l8 30h892l-73 -289h-30q-4 91 -27.5 134.5t-77 68t-171.5 24.5h-137l-121 -412q123 2 160 10q60 12 109.5 51t82.5 108h31l-125 -430h-32q8 41 8 66q0 50 -20.5 80t-52.5 41t-177 14 l-98 -341l-20 -68q-4 -20 -4 -40q0 -28 11 -44t35 -25t92 -10l-9 -30h-545z" />
<glyph unicode="G" horiz-adv-x="1191" d="M114 452q0 309 275 509q215 156 488 156q47 0 87 -5q30 -4 105 -23q48 -12 66 -12q35 0 67 40h30l-76 -351h-31q-6 153 -68.5 220.5t-175.5 67.5q-115 0 -231 -82t-198 -252t-82 -358q0 -161 72.5 -246t170.5 -85q41 0 99 24l84 288q21 72 21 95q0 30 -25.5 50.5 t-87.5 20.5l8 30h471l-7 -30q-42 -3 -65.5 -16t-37.5 -39q-8 -15 -25 -79l-99 -336q-169 -64 -356 -64q-144 0 -245 52.5t-167.5 166t-66.5 258.5z" />
<glyph unicode="H" horiz-adv-x="1282" d="M-53 0l9 30q77 0 113 30t66 136l203 698q18 61 18 95q0 33 -21.5 50t-101.5 23l9 30h533l-12 -30q-74 0 -112 -32t-69 -136l-92 -305h400l88 305q18 63 18 96q0 32 -22 49t-105 23l9 30h543l-9 -30q-80 0 -121 -34t-70 -134l-203 -698q-20 -69 -20 -99q0 -29 22 -45 q28 -21 102 -22l-8 -30h-532l12 30q77 0 114 30t67 136l94 325h-397l-94 -325q-20 -67 -20 -99q0 -29 24.5 -47.5t97.5 -19.5l-8 -30h-525z" />
<glyph unicode="I" horiz-adv-x="642" d="M-58 0l9 30q81 0 119 31t68 135l202 699q18 65 18 98q0 29 -22.5 46t-107.5 23l9 30h533l-11 -30q-72 0 -110.5 -32.5t-67.5 -134.5l-199 -699q-22 -74 -22 -99q0 -29 22 -45q29 -21 110 -22l-8 -30h-542z" />
<glyph unicode="J" d="M-13 138q0 59 36.5 98t83.5 39q42 0 70.5 -26.5t28.5 -64.5q0 -36 -35 -77q-20 -26 -20 -41q0 -13 11 -22q19 -14 44 -14q47 0 87 61t117 321l143 488q19 64 19 93t-23 46t-109 23l9 30h536l-9 -30q-74 0 -114.5 -33.5t-67.5 -128.5l-117 -409q-64 -221 -111.5 -309.5 t-136 -147.5t-224.5 -59q-110 0 -164 46.5t-54 116.5z" />
<glyph unicode="K" horiz-adv-x="1100" d="M-53 0l9 30q63 1 94.5 16.5t50 47.5t44.5 123l183 635q32 110 32 140q0 27 -25.5 47t-96.5 23l9 30h514l-9 -30q-52 0 -79 -15q-36 -21 -59 -62q-15 -26 -42 -123l-74 -261l284 261q83 77 93 92q13 20 13 43q0 24 -17.5 41.5t-59.5 23.5l8 30h412l-9 -30q-48 -4 -77 -14 q-40 -13 -90.5 -44t-102.5 -73l-75 -69l-173 -155l128 -403q63 -199 97.5 -235t90.5 -39l-9 -30h-472l8 30q47 4 69.5 27t22.5 57q0 36 -25 115l-116 370l-115 -397q-19 -67 -19 -97q0 -33 26.5 -53.5t95.5 -21.5l-9 -30h-530z" />
<glyph unicode="L" horiz-adv-x="1007" d="M-53 0l9 30q78 0 113.5 30t66.5 136l203 701q17 58 17 91q0 32 -24 51.5t-95 22.5l9 30h524l-9 -30q-76 -2 -113.5 -34t-66.5 -131l-185 -642q-35 -122 -35 -149q0 -16 18 -30t58 -14q134 0 258 61t211 183h33l-120 -306h-872z" />
<glyph unicode="M" horiz-adv-x="1466" d="M-56 0l8 30q65 2 100 27q61 45 88 139l236 806q-34 37 -61 48.5t-90 11.5l9 30h390l80 -751l520 751h382l-10 -30q-79 0 -120 -34t-70 -134l-201 -698q-19 -66 -19 -99q0 -29 24 -47.5t95 -19.5l-7 -30h-545l9 30q88 0 130 33.5t71 132.5l205 707l-625 -903h-33l-98 921 l-208 -725q-13 -45 -13 -74q0 -41 27.5 -65.5t94.5 -26.5l-8 -30h-361z" />
<glyph unicode="N" horiz-adv-x="1191" d="M-53 0l7 30q46 0 65 8q34 13 66.5 49.5t52.5 105.5l231 793q-43 48 -72 61.5t-87 14.5l9 30h369l341 -728l154 528q12 43 12 77q0 40 -25.5 64.5t-87.5 28.5l9 30h346l-8 -30q-66 -4 -109 -37t-73 -133l-266 -904h-31l-438 931l-212 -726q-10 -38 -10 -67q0 -44 28.5 -70 t91.5 -26l-7 -30h-356z" />
<glyph unicode="O" horiz-adv-x="1191" d="M88 357q0 179 102 360.5t275.5 290.5t342.5 109q99 0 188 -49.5t138.5 -139t49.5 -180.5q0 -204 -129.5 -409t-291.5 -296q-122 -69 -299 -69q-132 0 -213.5 54t-122 147.5t-40.5 181.5zM345 237q0 -98 42.5 -148t109.5 -50q88 0 150 58q123 117 201 343t78 402 q0 110 -41.5 159.5t-102.5 49.5q-64 0 -108.5 -23t-93 -76.5t-98.5 -154t-93.5 -272.5t-43.5 -288z" />
<glyph unicode="P" horiz-adv-x="1007" d="M-49 0l9 30q67 1 95.5 13.5t46.5 40.5q14 18 41 113l202 693q21 70 21 99q0 30 -26.5 50.5t-96.5 22.5l9 30h432q178 0 256 -45q121 -71 121 -213q0 -137 -120.5 -241t-323.5 -104q-62 0 -149 13l-89 -305q-18 -64 -18 -91q0 -37 24 -56t109 -20l-10 -30h-533zM484 564 q52 -7 87 -7q111 0 174.5 101.5t63.5 211.5q0 75 -41 116.5t-114 41.5q-15 0 -37 -2z" />
<glyph unicode="Q" horiz-adv-x="1191" d="M88 357q0 179 102.5 360.5t275 290.5t342.5 109q98 0 187.5 -49.5t138.5 -139t49 -186.5q0 -144 -70 -295.5t-189.5 -264.5t-240.5 -163q-82 -35 -190 -44l-142 -129q80 16 130 16q70 0 197.5 -33.5t200.5 -33.5q81 0 149 29q43 17 88 60l24 -22q-81 -99 -191.5 -152 t-277.5 -53q-95 0 -220.5 27t-199.5 27q-59 0 -125 -18l-16 20l297 262q-104 18 -160 56q-76 52 -117.5 141.5t-41.5 184.5zM345 237q0 -98 42.5 -148t109.5 -50q88 0 150 58q123 117 201 343t78 402q0 110 -41.5 159.5t-102.5 49.5q-64 0 -108.5 -23t-93 -76.5t-98.5 -154 t-93.5 -272.5t-43.5 -288z" />
<glyph unicode="R" horiz-adv-x="1100" d="M-52 0l9 30q79 0 115.5 30.5t67.5 136.5l203 701q17 58 17 92q0 32 -21 49t-97 23l8 30h452q194 0 273 -68t79 -174q0 -112 -92 -202q-58 -56 -205 -97l98 -331q39 -133 68.5 -160.5t98.5 -29.5v-30h-340l-155 533l-26 -2q-9 0 -28 2l-96 -331q-21 -70 -21 -103 q0 -31 25 -49.5t104 -19.5l-12 -30h-525zM485 581q28 -1 47 -1q118 0 193.5 80.5t75.5 210.5q0 77 -40.5 117.5t-106.5 40.5q-16 0 -37 -1z" />
<glyph unicode="S" horiz-adv-x="917" d="M-36 -25l97 416h31q10 -109 44 -186t96.5 -120t143.5 -43q80 0 133.5 52.5t53.5 123.5q0 61 -30.5 116.5t-138 161.5t-148.5 190q-29 62 -29 132q0 121 95.5 210t250.5 89q70 0 184 -32q67 -18 94 -18q24 0 42.5 10t43.5 40h35l-91 -371h-27q-8 87 -31 140 q-34 75 -90 116t-121 41q-63 0 -110 -48t-47 -108q0 -59 32.5 -117t154.5 -173q97 -93 130.5 -160t33.5 -145q0 -88 -46.5 -162t-135.5 -114.5t-202 -40.5q-69 0 -174 20.5t-140 20.5q-27 0 -49 -8.5t-54 -32.5h-31z" />
<glyph unicode="T" horiz-adv-x="1007" d="M131 0l10 30q83 0 120.5 31t69.5 139l243 822q-126 -4 -210.5 -55t-154.5 -169h-31l86 294h878l-83 -294h-29q2 23 2 41q0 84 -49 130t-166 53l-243 -822q-20 -69 -20 -102q0 -30 25 -48.5t101 -19.5l-7 -30h-542z" />
<glyph unicode="U" horiz-adv-x="1191" d="M155 249q0 57 32 169l138 478q19 64 19 96q0 30 -23 47t-107 23l9 30h544l-9 -30q-79 0 -120.5 -34t-69.5 -132l-140 -478q-34 -120 -34 -193q0 -66 53 -115t148 -49q87 0 147.5 32t101.5 89q53 76 95 219l142 495q12 43 12 71q0 50 -35 76q-25 19 -103 19l9 30h369 l-7 -30q-64 -5 -98 -31q-56 -41 -83 -135l-145 -501q-68 -234 -184 -327t-294 -93q-102 0 -179 29t-113.5 65t-55.5 90t-19 90z" />
<glyph unicode="V" horiz-adv-x="1100" d="M196 1062l9 30h459l-9 -30q-58 0 -88.5 -35.5t-35.5 -146.5l-25 -569l425 494q83 96 102.5 133t19.5 64q0 20 -17.5 36t-67.5 24l11 30h301v-30q-39 -10 -63 -28q-35 -27 -109 -113l-815 -946h-35l35 913q2 80 2 84q0 44 -21 65t-78 25z" />
<glyph unicode="W" horiz-adv-x="1466" d="M203 1062l12 30h441l-9 -30h-22q-43 0 -70 -28.5t-33 -106.5l-42 -554l329 450l8 104q3 32 3 51q0 40 -21 60.5t-70 23.5l8 30h444l-9 -30q-59 0 -87 -28.5t-34 -106.5l-42 -554l317 436q81 112 100 152q14 28 14 47q0 18 -18 33t-70 21l8 30h292l-7 -30q-40 -7 -66 -28 q-36 -28 -94 -107l-693 -952h-47l55 737l-537 -737h-48l74 934q3 41 3 67q0 43 -19.5 63t-69.5 23z" />
<glyph unicode="X" horiz-adv-x="1100" d="M-100 0l8 30q43 8 73 26q75 45 185 147l330 302l-170 396q-45 104 -73 129.5t-87 31.5v30h482l-9 -30q-51 -4 -68.5 -20t-17.5 -43q0 -31 28 -98l97 -229l134 123q113 103 144 153q19 30 19 54q0 22 -20 39.5t-63 20.5l10 30h356l-7 -30q-40 -7 -74 -29 q-54 -35 -180 -151l-294 -269l165 -384q57 -132 85.5 -160t84.5 -39l-8 -30h-483l9 30q51 1 74.5 20.5t23.5 48.5q0 39 -45 143l-89 205l-201 -188q-96 -88 -111.5 -115t-15.5 -51q0 -25 22.5 -43.5t73.5 -19.5l-9 -30h-379z" />
<glyph unicode="Y" horiz-adv-x="1007" d="M153 0l8 30h7q56 0 91 16q37 18 56 45q13 19 38 103l83 288l-91 398q-24 103 -57 141q-25 29 -91 41l9 30h524l-10 -30q-76 0 -111 -31t-35 -74q0 -26 14 -92l71 -323l177 243q67 93 84 131.5t17 67.5t-21.5 50.5t-70.5 27.5l9 30h328v-30q-45 -5 -77 -29t-125 -153 l-310 -427l-73 -253q-23 -78 -23 -91q0 -34 26.5 -56.5t89.5 -22.5h30l-8 -30h-559z" />
<glyph unicode="Z" horiz-adv-x="1007" d="M-45 0v30l834 999h-102q-197 0 -292 -49t-162 -165h-33l94 277h825v-30l-835 -1002h65q196 0 314.5 57.5t218.5 190.5h34l-114 -308h-847z" />
<glyph unicode="[" horiz-adv-x="549" d="M-47 -303l405 1395h349l-9 -30h-27q-58 0 -86.5 -12.5t-48 -40t-41.5 -101.5l-299 -1022q-25 -87 -25 -115q0 -11 7 -20q9 -11 26 -18q13 -5 55 -5h49l-9 -31h-346z" />
<glyph unicode="\" horiz-adv-x="458" d="M129 1114h96l110 -1139h-98z" />
<glyph unicode="]" horiz-adv-x="549" d="M-183 -303l9 31h27q58 0 86.5 12.5t48 39.5t41.5 101l299 1022q25 86 25 115q0 11 -7 20q-9 12 -26 18q-13 6 -55 6h-49l9 30h347l-406 -1395h-349z" />
<glyph unicode="^" horiz-adv-x="939" d="M167 536l331 578h66l326 -578h-128l-238 412l-233 -412h-124z" />
<glyph unicode="_" d="M-145 -250h855v-106h-855v106z" />
<glyph unicode="`" horiz-adv-x="549" d="M196 1117h237l86 -280h-63z" />
<glyph unicode="a" d="M32 175q0 114 69.5 261t181.5 236q93 74 174 74q45 0 72.5 -26t40.5 -95l29 99l191 11l-156 -535l-17 -66q-2 -12 -2 -17q0 -10 7 -17t14 -7q17 0 47 25q12 11 58 74l28 -14q-57 -105 -122 -153t-140 -48q-46 0 -70 24t-24 60q0 32 26 117l19 65q-93 -160 -179 -227 q-50 -39 -107 -39q-74 0 -107 61t-33 137zM242 206q0 -43 14 -61.5t31 -18.5q37 0 74 41q53 60 95 146q76 151 76 269q0 65 -20 94q-15 20 -39 20q-25 0 -52 -24q-54 -50 -116.5 -202.5t-62.5 -263.5z" />
<glyph unicode="b" d="M15 56l247 854q17 60 17 83q0 19 -16 30q-20 14 -58 14h-10l9 32l269 48h48l-139 -486q63 69 105.5 92t92.5 23q97 0 145 -69.5t48 -160.5q0 -217 -158 -388q-140 -151 -319 -151q-133 0 -281 79zM212 47q38 -24 68 -24q43 0 72 17q46 28 96 99.5t84 173t34 201.5 q0 58 -26 87.5t-59 29.5q-57 0 -99 -55q-28 -35 -61 -150z" />
<glyph unicode="c" horiz-adv-x="732" d="M43 210q0 132 72 259.5t189.5 202t230.5 74.5q91 0 137 -40t46 -100q0 -54 -34.5 -91.5t-77.5 -37.5q-37 0 -61.5 24t-24.5 57q0 43 44 76q29 22 29 39q0 14 -12 23q-16 13 -42 13q-67 0 -127 -55q-79 -72 -120.5 -183t-41.5 -211q0 -79 42.5 -126t101.5 -47 q51 0 111 26.5t114 80.5l24 -22q-78 -93 -154 -137q-100 -58 -208 -58q-73 0 -128.5 31t-82.5 87t-27 115z" />
<glyph unicode="d" d="M33 170q0 120 53 236.5t123 194.5t133 111.5t124 33.5q31 0 56 -13t56 -48l60 201q21 74 21 106q0 19 -14.5 32.5t-38.5 13.5q-11 0 -28 -2l8 31l265 50h48l-261 -901q-25 -85 -25 -102q0 -9 6 -15.5t14 -6.5q13 0 31 13q30 23 73 86l29 -16q-114 -198 -250 -198 q-48 0 -74.5 25.5t-26.5 65.5q0 37 21 107l24 83q-100 -178 -174 -237q-57 -44 -110 -44q-60 0 -101.5 49.5t-41.5 143.5zM243 204q0 -38 13.5 -56.5t30.5 -18.5q29 0 57 26q68 61 134.5 210t66.5 241q0 49 -19.5 71.5t-44.5 22.5q-26 0 -56 -26q-57 -52 -119.5 -207.5 t-62.5 -262.5z" />
<glyph unicode="e" horiz-adv-x="732" d="M36 191q0 132 77 264t209.5 211.5t265.5 79.5q68 0 102.5 -32t34.5 -81q0 -59 -34 -115q-46 -75 -117 -121.5t-159 -70.5q-58 -16 -157 -24q-8 -52 -8 -86q0 -61 35 -97t94 -36q57 0 113.5 27.5t131.5 95.5l24 -22q-93 -112 -180.5 -159.5t-193.5 -47.5 q-135 0 -186.5 64.5t-51.5 149.5zM265 344q71 10 110 28t76.5 58t64.5 101t27 114q0 22 -12.5 35t-31.5 13q-39 0 -87 -54q-88 -98 -147 -295z" />
<glyph unicode="f" horiz-adv-x="549" d="M-264 -268q0 33 26.5 57t70.5 24q36 0 55 -18.5t19 -46.5q0 -26 -12 -38.5t-12 -16.5l4 -5q5 -4 12 -4q24 0 41 15q42 38 63 92q15 37 56 195l164 644h-112l27 94h7q55 0 81 15q27 16 57 72q89 164 187 235t219 71q77 0 112 -30t35 -78q0 -41 -23 -65.5t-58 -24.5 q-32 0 -53 20t-21 48q0 20 13.5 42.5t13.5 30.5q0 9 -6 14.5t-16 5.5q-48 0 -98 -58q-82 -95 -132 -298h117l-28 -94h-114l-94 -372q-66 -264 -128.5 -382t-147 -175t-192.5 -57q-69 0 -101 26.5t-32 61.5z" />
<glyph unicode="g" d="M-85 -180q0 49 43.5 91t188.5 74q-50 27 -66 50q-24 30 -24 63q0 54 43 95t145 82q-79 31 -114 80.5t-35 115.5q0 70 42 133t124.5 102.5t189.5 39.5q69 0 122 -15q27 -8 64 -34h214l-26 -88h-111q26 -48 26 -91q0 -73 -40 -135t-117.5 -99t-172.5 -37q-25 0 -55.5 3.5 t-65.5 10.5q-53 -28 -67 -44q-10 -11 -10 -23q0 -14 12 -25q21 -18 62 -27q165 -36 217 -57q72 -30 108.5 -77t36.5 -113q0 -100 -92.5 -175.5t-286.5 -75.5q-196 0 -289 65q-66 46 -66 111zM60 -173q0 -52 55 -94.5t176 -42.5q100 0 145 36.5t45 85.5q0 44 -41.5 71.5 t-158.5 56.5q-55 15 -89 26q-77 -30 -104.5 -64.5t-27.5 -74.5zM294 374q0 -40 23 -63t57 -23q33 0 57 23q46 44 79.5 141t33.5 176q0 35 -21.5 57t-53.5 22q-39 0 -66 -26q-44 -39 -76.5 -132t-32.5 -175z" />
<glyph unicode="h" horiz-adv-x="917" d="M20 0l264 910q16 58 16 83q0 20 -16 31q-19 13 -54 13h-10l5 32l268 48h49l-210 -726q109 160 158 217q74 81 126.5 109.5t100.5 28.5q41 0 70.5 -31t29.5 -82q0 -44 -19 -109l-102 -343q-14 -45 -14 -60q0 -7 5.5 -13.5t12.5 -6.5q10 0 20 8q25 21 54 65q8 11 24 34 l31 -18q-69 -114 -131 -157t-118 -43q-50 0 -78 26t-28 65q0 35 19 100l100 343q10 35 10 52q0 8 -7 15t-16 7q-29 0 -79 -48q-105 -99 -210 -311l-71 -239h-200z" />
<glyph unicode="i" horiz-adv-x="458" d="M33 81q0 30 14 76l112 385q16 55 16 83q0 18 -15.5 32t-41.5 14q-13 0 -29 -1l10 32l273 44h48l-165 -572q-13 -49 -13 -65q0 -8 7 -16t15 -8q14 0 27 12q37 30 87 108l28 -16q-122 -212 -259 -212q-52 0 -83 29.5t-31 74.5zM253 998q0 49 34 84t83 35q50 0 84.5 -35 t34.5 -84t-35 -83.5t-84 -34.5q-48 0 -82.5 34.5t-34.5 83.5z" />
<glyph unicode="j" horiz-adv-x="458" d="M-266 -269q0 34 27 60t69 26q32 0 50.5 -17t18.5 -42q0 -23 -21 -46q-9 -10 -9 -15t5 -9.5t16 -4.5q35 0 61 40q18 27 63 200l164 620q18 66 18 83q0 16 -18 31t-47 15q-9 0 -21 -1l9 31l271 44h49l-172 -633q-53 -194 -119 -307q-46 -79 -123 -120.5t-158 -41.5 q-67 0 -100 26.5t-33 60.5zM251 997q0 50 35 85t85 35t84.5 -35t34.5 -85t-35 -85t-84 -35q-50 0 -85 35t-35 85z" />
<glyph unicode="k" d="M10 0l267 909q17 58 17 78q0 18 -8 30t-22 17.5t-56 5.5l7 30l274 47h48l-222 -762l184 171l61 54q27 28 37 47q7 12 7 23q0 17 -16 28t-78 15l8 31h328l-8 -31q-58 -14 -94 -31q-28 -14 -69 -45q-62 -48 -88 -74l-36 -33l50 -222q28 -129 41 -149q9 -12 21 -12 q28 0 67 66q6 9 15 25l30 -18q-60 -113 -136 -172q-51 -39 -92 -39t-68 29t-55 154l-40 183l-89 -79l-80 -276h-205z" />
<glyph unicode="l" horiz-adv-x="458" d="M24 75q0 30 19 96l218 742q18 61 18 81q0 19 -17 31q-19 13 -55 13h-14l9 31l271 48h49l-267 -907q-23 -80 -23 -101q0 -10 7 -17t15 -7q14 0 27 11q39 31 86 106l31 -14q-76 -123 -150 -175q-51 -36 -108 -36q-53 0 -84.5 29t-31.5 69z" />
<glyph unicode="m" horiz-adv-x="1282" d="M16 0l151 518q23 76 23 108q0 13 -6.5 22.5t-21 14.5t-55.5 5l8 31l275 47h48l-103 -346q104 159 151 215q70 81 115.5 106t91.5 25q52 0 75.5 -31.5t23.5 -68.5q0 -40 -22 -116l-36 -130q105 161 151 214q71 82 123 111q36 21 77 21q43 0 71.5 -28.5t28.5 -74.5 q0 -51 -24 -133l-90 -301q-20 -67 -20 -86q0 -6 5.5 -12t11.5 -6q9 0 16 6q29 23 61 69q7 9 21 29l28 -17q-56 -104 -122.5 -152.5t-122.5 -48.5q-49 0 -79 27t-30 63q0 35 21 105l91 314q18 65 18 81q0 6 -5.5 11t-11.5 5q-10 0 -21 -5q-15 -8 -47 -41.5t-91.5 -121 t-82.5 -136.5t-45 -127l-49 -166h-204l151 526q12 42 12 58q0 6 -5.5 11t-11.5 5q-29 0 -94 -78q-98 -121 -178 -291l-66 -231h-205z" />
<glyph unicode="n" horiz-adv-x="917" d="M21 0l150 517q22 76 22 108q0 14 -6.5 23.5t-21 14.5t-54.5 5l9 31l271 47h49l-99 -345q100 151 150 207q73 80 126.5 109t99.5 29q42 0 72 -31t30 -81q0 -45 -20 -109l-103 -344q-13 -45 -13 -59q0 -8 6.5 -14.5t12.5 -6.5q8 0 17 7q28 23 57 66q7 11 23 34l31 -19 q-118 -199 -249 -199q-50 0 -78 26t-28 65q0 33 19 100l101 344q10 34 10 50q0 9 -7 15.5t-17 6.5q-30 0 -74 -42q-111 -106 -215 -316l-66 -239h-205z" />
<glyph unicode="o" d="M40 202q0 112 45 210t113.5 170.5t158 118t185.5 45.5q63 0 119 -29.5t84.5 -81.5t28.5 -116q0 -130 -72.5 -260.5t-192 -206t-239.5 -75.5q-110 0 -170 65.5t-60 159.5zM240 105q0 -37 22.5 -61t53.5 -24t55 19q36 29 87.5 130t84.5 223t33 224q0 42 -20.5 65t-46.5 23 q-43 0 -71 -25q-56 -51 -127 -237.5t-71 -336.5z" />
<glyph unicode="p" d="M-201 -353l8 30q51 2 85.5 33.5t64.5 134.5l196 677q22 76 22 108q0 13 -6.5 22.5t-19.5 13.5t-58 4l9 31l266 45h49l-37 -131q85 77 139 104t107 27q76 0 117 -58t41 -143q0 -231 -161 -410q-141 -158 -309 -158q-29 0 -50 6t-59 25l-42 -145q-23 -79 -23 -120 q0 -26 18 -40.5t83 -25.5l-7 -30h-433zM225 83q25 -40 44 -53t45 -13t50.5 14t60.5 56.5t69.5 109.5t53.5 152t20 162q0 62 -22 90.5t-53 28.5q-29 0 -53 -15q-37 -21 -86 -78z" />
<glyph unicode="q" d="M31 178q0 104 48 218t126.5 201t158.5 128q40 21 91 21q50 0 81 -29t43 -95l30 102h188l-238 -814q-24 -84 -29 -106q-7 -35 -7 -59q0 -25 20 -41q27 -22 84 -27l-9 -30h-426l8 30q48 7 71 22t40.5 50t40.5 119l107 365q-90 -155 -168 -212q-59 -44 -118 -44t-94 44 q-48 58 -48 157zM242 209q0 -42 18 -65q13 -17 33 -17q28 0 56 26q68 60 133 201t65 229q0 55 -22.5 83.5t-49.5 28.5q-29 0 -59 -27q-53 -47 -108 -187q-66 -173 -66 -272z" />
<glyph unicode="r" horiz-adv-x="642" d="M28 0l133 534q14 59 14 79q0 21 -7.5 33t-20.5 18t-55 6l7 23l243 53h48l-121 -452q150 331 225 407q45 45 94 45q33 0 54 -24.5t21 -69.5q0 -78 -38 -131q-24 -34 -53 -34q-33 0 -49 30t-22.5 35t-13.5 5q-8 0 -17 -5q-18 -9 -46.5 -46.5t-70 -125.5t-65 -148.5 t-65.5 -231.5h-195z" />
<glyph unicode="s" horiz-adv-x="642" d="M-1 -23l40 269h25q29 -98 53.5 -139.5t65.5 -66t79 -24.5q44 0 73 28t29 66t-19 73.5t-87 110.5q-95 102 -124 158q-21 40 -21 91q0 87 63 145t177 58q50 0 123 -17q36 -9 58 -9q31 0 50 26h29l-35 -249h-30q-6 97 -59 152.5t-113 55.5q-37 0 -61 -21.5t-24 -52.5 q0 -26 10.5 -48.5t46.5 -60.5q127 -137 154.5 -188.5t27.5 -110.5q0 -64 -32.5 -120.5t-96.5 -91t-133 -34.5q-47 0 -115 19q-45 13 -68 13q-20 0 -31 -6t-25 -26h-30z" />
<glyph unicode="t" horiz-adv-x="458" d="M31 76q0 46 21 120l128 435h-110l16 60q103 38 174 88.5t171 163.5h42l-65 -219h106l-29 -93h-103l-135 -467q-13 -43 -13 -66q0 -10 7.5 -18t16.5 -8q13 0 28 12q37 28 86 98l28 -18q-55 -96 -122 -141.5t-131 -45.5q-55 0 -85.5 28t-30.5 71z" />
<glyph unicode="u" horiz-adv-x="917" d="M56 89q0 41 20 110l91 322q23 79 23 106q0 12 -6.5 21.5t-21.5 14.5t-55 5l8 31l275 47h48l-156 -547q-12 -38 -12 -52q0 -8 6 -12q7 -6 15 -6q37 0 99 66q89 96 186 275l74 246l203 8l-154 -532q-20 -67 -20 -77q0 -6 6 -13t13 -7q11 0 22 10q29 23 76 94l28 -19 q-112 -203 -247 -203q-50 0 -78.5 25.5t-28.5 66.5q0 44 20 111l40 136q-105 -153 -152 -206q-73 -79 -122.5 -106t-94.5 -27q-43 0 -74 31.5t-31 80.5z" />
<glyph unicode="v" horiz-adv-x="732" d="M46 646v29l268 71q78 -215 78 -545v-17q118 112 163 182t45 117q0 37 -28 75.5t-35 54.5t-7 35q0 42 27.5 70t69.5 28q44 0 69 -28q33 -39 33 -93q0 -56 -19.5 -109.5t-67.5 -126.5t-107 -132q-108 -110 -308 -280h-29q2 66 2 100q0 92 -14 265.5t-31 231.5 q-14 43 -37 62q-15 13 -39 13q-14 0 -33 -3z" />
<glyph unicode="w" horiz-adv-x="1100" d="M46 643v30l277 73q22 -63 30 -118q14 -85 14 -199q0 -40 -3 -122l311 439h34l60 -565q121 120 158 189.5t37 116.5q0 18 -8 35.5t-32 49t-27 39.5q-6 15 -6 37q0 41 28 69.5t71 28.5t68 -29q35 -42 35 -96q0 -90 -85 -234.5t-390 -409.5h-32l-50 495l-348 -495h-34 q12 224 12 419q0 127 -14 184q-8 33 -28.5 49.5t-44.5 16.5q-13 0 -33 -3z" />
<glyph unicode="x" d="M-75 64q0 41 26.5 68t67.5 27q22 0 49 -13q41 -20 58 -20q24 0 42 10q24 12 61 52q23 25 83 107q-77 286 -120 343q-28 36 -70 36q-21 0 -53 -7l6 31l281 48q76 -120 108 -264q79 117 119 164q54 62 89 81t74 19q45 0 68.5 -24t23.5 -65q0 -39 -23.5 -63.5t-59.5 -24.5 q-26 0 -59 9.5t-46 9.5q-34 0 -65 -24q-42 -34 -103 -141q69 -242 110 -295q24 -31 49 -31q21 0 36 10q23 17 72 85l29 -17q-71 -115 -139 -161q-51 -37 -101 -37q-52 0 -86 23t-60.5 75t-63.5 167q-94 -120 -147.5 -175.5t-89 -72.5t-75.5 -17q-42 0 -66.5 24.5t-24.5 62.5 z" />
<glyph unicode="y" horiz-adv-x="732" d="M-155 -247q0 44 29.5 74.5t69.5 30.5q49 0 90 -51q27 -35 45 -35t36 11q24 13 68 59q5 101 5 152q0 70 -7 195l-14 307q-7 84 -36 121q-22 28 -59 28q-13 0 -30 -3v32l248 72q30 -37 42 -70q21 -57 30 -158q17 -198 24 -422q86 113 197 300q34 56 34 106q0 32 -39 60 t-49 43.5t-10 40.5q0 41 29.5 70.5t71.5 29.5q44 0 76.5 -33.5t32.5 -79.5q0 -54 -30 -125.5t-141 -244.5q-143 -221 -279 -383q-88 -103 -142 -148.5t-112 -72.5q-35 -15 -68 -15q-46 0 -79 32.5t-33 76.5z" />
<glyph unicode="z" horiz-adv-x="642" d="M-17 0l467 554h-167q-72 0 -104 -18t-60 -69h-34l66 257h503l-457 -540q52 -16 77 -46q32 -41 46.5 -121t33 -101t37.5 -21q13 0 24.5 11.5t11.5 25.5q0 16 -10 50q-6 24 -6 45q0 45 28.5 76t68.5 31q36 0 60.5 -27t24.5 -71q0 -67 -61 -121.5t-150 -54.5q-103 0 -202 95 q-41 38 -66 51q-14 8 -37 8q-19 0 -42 -14h-52z" />
<glyph unicode="{" horiz-adv-x="574" d="M70 -129q0 67 69 190.5t69 189.5q0 46 -28.5 76.5t-88.5 40.5l14 49q69 11 119 47t75.5 92.5t31 170t29.5 166.5t84 109t134.5 83.5t173.5 31.5l-11 -37q-74 -13 -122.5 -47.5t-69.5 -82.5t-27 -158t-32 -167t-76 -105.5t-111 -79.5q-45 -22 -140 -46q98 -33 136 -70 q61 -58 61 -142q0 -64 -65 -183.5t-65 -178.5q0 -45 25 -73.5t92 -41.5l-11 -38q-78 0 -120 13q-69 24 -107.5 73.5t-38.5 117.5z" />
<glyph unicode="|" horiz-adv-x="363" d="M128 -356v1473h105v-1473h-105z" />
<glyph unicode="}" horiz-adv-x="574" d="M-154 -333l11 37q74 13 122.5 47t69.5 82.5t27 158.5t32 167t76 105t111 80q46 22 140 46q-98 33 -136 70q-61 58 -61 141q0 64 65 184t65 179q0 45 -25 73.5t-92 42.5l11 37q79 0 120 -13q70 -24 108 -73.5t38 -117.5q0 -67 -69 -190.5t-69 -189.5q0 -46 28.5 -76.5 t88.5 -40.5l-14 -49q-69 -11 -119 -47t-75.5 -92.5t-30.5 -170t-29.5 -166.5t-84.5 -109t-134.5 -83.5t-173.5 -31.5z" />
<glyph unicode="~" horiz-adv-x="939" d="M31 312q7 132 66 196t144 64q42 0 83 -12q82 -23 225 -84q77 -34 118 -45q24 -7 53 -7q57 0 96 38t46 109h46q-5 -128 -66.5 -194t-150.5 -66q-42 0 -90 13.5t-211 82.5q-118 49 -170 49q-55 0 -91.5 -33.5t-50.5 -110.5h-47z" />
<glyph unicode="&#xa1;" horiz-adv-x="642" d="M32 -250q0 35 14 77.5t84 190.5q118 246 186 432h30q-39 -213 -58.5 -433t-60 -296.5t-105.5 -76.5q-36 0 -63 31t-27 75zM258 653q0 55 38.5 93t93.5 38q54 0 92.5 -38t38.5 -93q0 -54 -38.5 -92.5t-92.5 -38.5t-93 38.5t-39 92.5z" />
<glyph unicode="&#xa2;" d="M88 210q0 131 64.5 251.5t175.5 202.5q72 52 184 82l96 316h55l-95 -316q93 -1 136 -31q58 -42 58 -111q0 -53 -35 -90t-77 -37q-37 0 -61.5 23.5t-24.5 55.5q0 45 45 79q29 21 29 39q0 13 -12 22q-16 12 -42 12q-11 0 -29 -2l-180 -602q49 -18 73 -18q33 0 97 26t118 83 l24 -24q-66 -75 -120.5 -115t-105 -57t-123.5 -19l-85 -287h-57l87 287q-75 16 -112 43t-60 79t-23 108zM294 258q0 -54 38 -119l161 543q-47 -31 -75 -66q-52 -65 -88 -162t-36 -196z" />
<glyph unicode="&#xa3;" d="M59 100q0 71 49 116.5t146 46.5q2 69 12 230h-146l36 118h119q50 267 152.5 385t259.5 118q87 0 132.5 -38t45.5 -89q0 -40 -28.5 -68.5t-66.5 -28.5t-67 26q-23 21 -23 56q0 19 7 33q13 25 13 31q0 8 -11 17q-10 9 -29 9q-38 0 -61 -39q-15 -26 -45 -171 q-40 -187 -54 -241h172l-37 -118h-163q-48 -143 -94 -254q41 -15 135.5 -61t142.5 -46q41 0 76 51h30q-44 -109 -110.5 -157.5t-151.5 -48.5q-48 0 -91.5 15.5t-118.5 60.5q-23 -38 -52 -57t-63 -19q-48 0 -82 35t-34 88zM115 80q0 -23 13.5 -36.5t32.5 -13.5t31 10t35 56 q-43 30 -68 30q-17 0 -30.5 -13t-13.5 -33z" />
<glyph unicode="&#xa4;" d="M49 861l75 74l107 -108q100 72 210 72q108 0 218 -72l111 108l72 -70l-113 -112q70 -99 70 -210q0 -108 -70 -213l104 -103l-74 -73l-105 104q-64 -41 -109.5 -55t-101.5 -14q-60 0 -107 15.5t-105 53.5l-107 -104l-71 73l106 103q-71 94 -71 210q0 57 17.5 113t53.5 100 zM191 543q0 -104 74 -178t178 -74t178 74t74 178t-74 178t-178 74q-105 0 -178.5 -74t-73.5 -178z" />
<glyph unicode="&#xa5;" d="M-15 280l17 54h305l44 155l-2 8h-312l17 54h285l-68 358q-18 96 -43 127q-17 21 -60 26l10 30h414l-8 -30q-64 -5 -86 -25t-22 -56q0 -33 12 -100l61 -330l192 294q72 111 72 163q0 19 -18.5 35t-61.5 19l8 30h272l-9 -30q-25 -2 -44 -15q-25 -18 -68 -84l-274 -412h269 l-18 -54h-287l-33 -49l-31 -114h317l-18 -54h-315l-21 -79q-21 -72 -21 -99q0 -17 13.5 -35.5t36.5 -27.5t82 -9l-8 -30h-520l10 30q87 0 124.5 29.5t64.5 126.5l28 94h-306z" />
<glyph unicode="&#xa6;" horiz-adv-x="363" d="M128 233h105v-589h-105v589zM128 529v588h105v-588h-105z" />
<glyph unicode="&#xa7;" d="M-23 -134q0 44 27 71.5t65 27.5q37 0 62 -26t25 -69q0 -20 -5 -41q-8 -37 -8 -50q0 -31 31.5 -57t91.5 -26q79 0 125.5 41.5t46.5 98.5q0 54 -27 99q-29 45 -135.5 129.5t-151.5 165.5q-33 61 -33 129q0 97 52.5 179t155.5 152q-24 38 -36.5 74t-12.5 70 q0 116 88.5 199.5t233.5 83.5q136 0 218.5 -72.5t82.5 -161.5q0 -40 -26 -67.5t-65 -27.5q-40 0 -64.5 25t-24.5 70q0 21 4 42q7 35 7 48q0 33 -31 60t-93 27q-79 0 -126 -44t-47 -101q0 -52 29 -98t138 -133.5t154 -169.5q34 -62 34 -132q0 -93 -52 -173t-159 -154 q22 -42 33 -78t11 -66q0 -103 -91 -185t-233 -82q-130 0 -212 70t-82 152zM226 477q0 -54 29 -104t133 -143q69 -61 135 -133q59 49 83 90.5t24 88.5q0 58 -31.5 110t-146.5 146q-72 60 -128 122q-98 -86 -98 -177z" />
<glyph unicode="&#xa8;" horiz-adv-x="549" d="M149 977q0 45 31.5 76t75.5 31t75.5 -31t31.5 -76q0 -44 -31.5 -75.5t-75.5 -31.5t-75.5 31.5t-31.5 75.5zM449 977q0 44 31 75.5t75 31.5q45 0 76 -31.5t31 -75.5t-31.5 -75t-75.5 -31t-75 31t-31 75z" />
<glyph unicode="&#xa9;" horiz-adv-x="1232" d="M89 546q0 149 76.5 286t213.5 211t280 74q144 0 281 -74t214 -211t77 -286q0 -148 -75.5 -284t-212 -211.5t-284.5 -75.5t-283.5 75.5t-211 211.5t-75.5 284zM160 546q0 -130 66 -248.5t185 -184.5t248 -66q130 0 248.5 66t184.5 184.5t66 248.5q0 129 -66.5 249.5 t-186 185t-246.5 64.5q-125 0 -244.5 -64.5t-187 -185t-67.5 -249.5zM312 538q0 153 100.5 253t253.5 100q69 0 158 -32q26 -10 37 -10q15 0 25 10t12 31h31v-212h-31q-16 81 -70 127.5t-128 46.5q-88 0 -147.5 -70.5t-59.5 -222.5q0 -163 58 -232t145 -69q119 0 210 111 v-57q-97 -102 -256 -102q-151 0 -244.5 91.5t-93.5 236.5z" />
<glyph unicode="&#xaa;" horiz-adv-x="439" d="M113 765q0 130 95.5 239.5t179.5 109.5q31 0 47.5 -15t24.5 -55l17 56l128 7l-100 -319q-13 -40 -13 -51q0 -5 4.5 -9.5t9.5 -4.5q8 0 15 6q19 13 52 53l19 -10q-73 -119 -166 -119q-35 0 -52 15.5t-17 38.5q0 18 12 54l17 51q-65 -100 -103.5 -129.5t-79.5 -29.5 q-40 0 -65 29.5t-25 82.5zM249 791q0 -23 12 -38q6 -10 18 -10q47 0 102 100.5t55 179.5q0 32 -13 50q-8 11 -25 11q-22 0 -42 -17t-63.5 -119.5t-43.5 -156.5z" />
<glyph unicode="&#xab;" d="M67 362l356 371h51l-207 -371l48 -370h-48zM409 362l355 371h49l-206 -371l51 -370h-51z" />
<glyph unicode="&#xac;" horiz-adv-x="999" d="M59 623v103h880v-366h-103v265z" />
<glyph unicode="&#xad;" horiz-adv-x="549" d="M10 278l53 167h468l-50 -167h-471z" />
<glyph unicode="&#xae;" horiz-adv-x="1232" d="M89 546q0 149 76.5 286t213.5 211t280 74q144 0 281 -74t214 -211t77 -286q0 -148 -75.5 -284t-212 -211.5t-284.5 -75.5t-283.5 75.5t-211 211.5t-75.5 284zM160 546q0 -130 66 -248.5t185 -184.5t248 -66q130 0 248.5 66t184.5 184.5t66 248.5q0 129 -66.5 249.5 t-186 185t-246.5 64.5q-125 0 -244.5 -64.5t-187 -185t-67.5 -249.5zM341 226v28q50 0 65 16q20 24 20 93v380q0 66 -14 84t-58 23v27h292q147 0 204 -35q81 -51 81 -141q0 -57 -35.5 -101.5t-108.5 -64.5l111 -202q24 -43 49 -65q13 -10 35 -14v-28h-195l-165 296h-37v-159 q0 -68 18 -87.5t79 -21.5v-28h-341zM585 564q28 -5 46 -5q52 0 89.5 39.5t37.5 105.5q0 68 -35 103t-107 35h-31v-278z" />
<glyph unicode="&#xaf;" d="M207 1177v105h855v-105h-855z" />
<glyph unicode="&#xb0;" horiz-adv-x="659" d="M145 836q0 116 81.5 197t196.5 81q116 0 197.5 -81t81.5 -197t-81.5 -197.5t-197.5 -81.5q-115 0 -196.5 81.5t-81.5 197.5zM250 836q0 -71 51 -122t122 -51q72 0 123 51t51 122q0 72 -51 122.5t-123 50.5t-122.5 -50.5t-50.5 -122.5z" />
<glyph unicode="&#xb1;" horiz-adv-x="905" d="M24 215h388v278h-387v106h387v386h106v-386h387v-106h-387v-277h387v-107h-880z" />
<glyph unicode="&#xb2;" horiz-adv-x="494" d="M81 535v21q244 195 309 288q33 46 33 98q0 37 -23.5 59t-63.5 22q-61 0 -108 -65l-32 13q29 71 81 107t121 36q77 0 123 -40t46 -89q0 -66 -60.5 -134t-254.5 -212h105q59 0 79.5 11t42.5 48h42l-81 -163h-359z" />
<glyph unicode="&#xb3;" horiz-adv-x="494" d="M89 580q0 21 14 32q21 17 49 17q27 0 77 -31q37 -22 60 -22q24 0 45 27q28 36 28 89q0 73 -50 113q-33 26 -112 33l9 27q116 13 172 58q37 29 37 68q0 26 -19 44t-50 18q-24 0 -45 -12t-48 -44l-34 14q42 55 84 79t97 24q70 0 110.5 -33.5t40.5 -75.5q0 -45 -32 -75 q-43 -43 -119 -55q49 -23 68 -47q29 -38 29 -86q0 -83 -81 -151.5t-211 -68.5q-66 0 -98 22q-21 15 -21 36z" />
<glyph unicode="&#xb4;" horiz-adv-x="549" d="M324 835l95 282h248l-271 -282h-72z" />
<glyph unicode="&#xb5;" horiz-adv-x="950" d="M-103 -270q0 52 59 148.5t78.5 141.5t53.5 160l157 544h205l-130 -449q-19 -67 -21 -72q-5 -29 -5 -49q0 -26 16.5 -42.5t39.5 -16.5q46 0 102 59q74 78 129 269l86 301h206l-144 -496q-27 -90 -27 -115q0 -19 12.5 -32t27.5 -13t31 16q32 30 61 96l29 -15 q-35 -99 -91 -143.5t-123 -44.5q-61 0 -98 37t-37 96q0 29 6 70q-91 -126 -160 -169q-53 -34 -117 -34q-47 0 -80 21q-20 11 -43 50q-20 -61 -28 -105.5t-12 -119.5t-12 -102q-12 -38 -38 -58t-55 -20q-32 0 -55 24.5t-23 62.5z" />
<glyph unicode="&#xb6;" d="M-32 727q0 82 20 135.5t64 102t90 75.5t105 37q77 15 259 15h354v-36h-36q-47 0 -71 -14.5t-37 -41.5q-8 -20 -8 -107v-1249h-80v1386h-147v-1386h-80v701q-150 7 -243 50.5t-141.5 132.5t-48.5 199z" />
<glyph unicode="&#xb7;" horiz-adv-x="412" d="M125 548q0 55 38.5 94t94.5 39q54 0 93 -39t39 -94t-39 -93.5t-93 -38.5q-56 0 -94.5 38.5t-38.5 93.5z" />
<glyph unicode="&#xb8;" horiz-adv-x="549" d="M9 -279l10 25q60 -11 90 -11q54 0 83 24.5t29 58.5q0 28 -18.5 47t-43.5 19q-17 0 -44 -6l-10 24l135 98h61l-55 -42q66 -9 97.5 -42.5t31.5 -79.5q0 -57 -50 -98t-161 -41q-89 0 -155 24z" />
<glyph unicode="&#xb9;" horiz-adv-x="494" d="M99 535l9 24q67 2 86.5 15t38.5 69l93 279q24 71 24 84q0 16 -9.5 25.5t-29.5 9.5q-15 0 -57 -4l-6 25l284 52l-160 -476q-11 -33 -11 -43q0 -9 6 -18t14 -11q12 -5 42 -5l29 -2l-9 -24h-344z" />
<glyph unicode="&#xba;" horiz-adv-x="494" d="M142 790q0 75 45.5 154t124.5 124.5t154 45.5q70 0 111 -38.5t41 -99.5q0 -73 -45 -152t-124.5 -125t-155.5 -46q-72 0 -111.5 38t-39.5 99zM271 732q0 -24 14.5 -38.5t36.5 -14.5q23 0 39 15q42 39 85 143.5t43 196.5q0 26 -12.5 40t-30.5 14q-29 0 -48 -16 q-34 -30 -80.5 -140t-46.5 -200z" />
<glyph unicode="&#xbb;" d="M11 -8l206 371l-51 370h51l198 -370l-355 -371h-49zM350 -8l207 371l-47 370h47l201 -370l-357 -371h-51z" />
<glyph unicode="&#xbc;" horiz-adv-x="1236" d="M97 535l9 24q68 2 87.5 15t37.5 69l93 279q25 71 25 84q0 16 -10 25.5t-30 9.5q-14 0 -56 -4l-7 25l284 52l-160 -476q-11 -33 -11 -43q0 -9 6 -18t14 -11q12 -5 42 -5l29 -2l-9 -24h-344zM217 -47l772 1161h109l-775 -1161h-106zM668 81l26 76l390 386h78l-128 -386h74 l-28 -76h-73l-44 -128h-123l44 128h-216zM761 157h150l68 217z" />
<glyph unicode="&#xbd;" horiz-adv-x="1236" d="M97 535l9 24q68 2 87.5 15t37.5 69l93 279q25 71 25 84q0 16 -10 25.5t-30 9.5q-14 0 -56 -4l-7 25l284 52l-160 -476q-11 -33 -11 -43q0 -9 6 -18t14 -11q12 -5 42 -5q1 0 29 -2l-9 -24h-344zM178 -47l772 1161h109l-775 -1161h-106zM657 -14q204 162 288 261 q54 63 54 125q0 36 -23.5 58.5t-62.5 22.5q-61 0 -109 -66l-32 14q28 71 80.5 106.5t121.5 35.5q77 0 123 -39.5t46 -88.5q0 -66 -60.5 -134t-254.5 -212h105q59 0 79.5 11t42.5 48h41l-79 -164h-360v22z" />
<glyph unicode="&#xbe;" horiz-adv-x="1236" d="M88 580q0 21 13 32q21 17 50 17q26 0 77 -31q37 -22 59 -22q25 0 45 27q29 36 29 89q0 73 -51 113q-33 26 -111 33l9 27q116 13 171 58q37 29 37 68q0 26 -19 44t-49 18q-24 0 -45 -12t-49 -44l-33 14q41 55 83 79t98 24q70 0 110 -33.5t40 -75.5q0 -45 -32 -75 q-43 -43 -119 -55q50 -23 68 -47q29 -38 29 -86q0 -83 -81 -151.5t-211 -68.5q-66 0 -97 22q-21 15 -21 36zM216 -47l772 1161h110l-775 -1161h-107zM668 81l25 76l390 386h79l-129 -386h75l-29 -76h-73l-43 -128h-123l43 128h-215zM760 157h150l68 217z" />
<glyph unicode="&#xbf;" d="M7 -134q0 82 41 145q58 89 200 177t182 137t53 129h32q0 -86 -27.5 -147t-146.5 -202q-83 -99 -116 -177q-22 -51 -22 -108q0 -68 32 -104.5t81 -36.5q34 0 54.5 18t20.5 40q0 14 -14 40q-28 51 -28 88q0 41 31.5 72t76.5 31q47 0 79.5 -34.5t32.5 -92.5 q0 -95 -80.5 -146t-187.5 -51q-89 0 -157 29.5t-102.5 82t-34.5 110.5zM383 653q0 55 38.5 93.5t93.5 38.5t93 -38.5t38 -93.5t-38.5 -93.5t-92.5 -38.5q-55 0 -93.5 38.5t-38.5 93.5z" />
<glyph unicode="&#xc0;" horiz-adv-x="1100" d="M-93 0l8 30q43 7 77 30q45 33 130 133l773 924h36l-36 -894q-2 -70 -2 -85q0 -54 22 -79t74 -29l-9 -30h-472l9 30q70 6 80 11q23 11 41.5 47t22.5 125l7 139h-338l-68 -84l-77 -93q-22 -29 -33 -53q-8 -19 -8 -37q0 -20 20.5 -36.5t68.5 -18.5v-30h-326zM386 418h282 l21 356zM705 1456h237l86 -280h-63z" />
<glyph unicode="&#xc1;" horiz-adv-x="1100" d="M-93 0l8 30q43 7 77 30q45 33 130 133l773 924h36l-36 -894q-2 -70 -2 -85q0 -54 22 -79t74 -29l-9 -30h-472l9 30q70 6 80 11q23 11 41.5 47t22.5 125l7 139h-338l-68 -84l-77 -93q-22 -29 -33 -53q-8 -19 -8 -37q0 -20 20.5 -36.5t68.5 -18.5v-30h-326zM386 418h282 l21 356zM872 1157l95 282h248l-271 -282h-72z" />
<glyph unicode="&#xc2;" horiz-adv-x="1100" d="M-93 0l8 30q43 7 77 30q45 33 130 133l773 924h36l-36 -894q-2 -70 -2 -85q0 -54 22 -79t74 -29l-9 -30h-472l9 30q70 6 80 11q23 11 41.5 47t22.5 125l7 139h-338l-68 -84l-77 -93q-22 -29 -33 -53q-8 -19 -8 -37q0 -20 20.5 -36.5t68.5 -18.5v-30h-326zM386 418h282 l21 356zM619 1170l246 274h183l82 -274h-82l-108 163l-237 -163h-84z" />
<glyph unicode="&#xc3;" horiz-adv-x="1100" d="M-93 0l8 30q43 7 77 30q45 33 130 133l773 924h36l-36 -894q-2 -70 -2 -85q0 -54 22 -79t74 -29l-9 -30h-472l9 30q70 6 80 11q23 11 41.5 47t22.5 125l7 139h-338l-68 -84l-77 -93q-22 -29 -33 -53q-8 -19 -8 -37q0 -20 20.5 -36.5t68.5 -18.5v-30h-326zM386 418h282 l21 356zM657 1197q6 116 53.5 169.5t107.5 53.5q64 0 171 -52q45 -21 65 -21q24 0 40.5 16.5t20.5 56.5h51q-2 -112 -49 -168t-105 -56q-57 0 -171 52q-48 22 -70 22q-23 0 -39.5 -17t-21.5 -56h-53z" />
<glyph unicode="&#xc4;" horiz-adv-x="1100" d="M-93 0l8 30q43 7 77 30q45 33 130 133l773 924h36l-36 -894q-2 -70 -2 -85q0 -54 22 -79t74 -29l-9 -30h-472l9 30q70 6 80 11q23 11 41.5 47t22.5 125l7 139h-338l-68 -84l-77 -93q-22 -29 -33 -53q-8 -19 -8 -37q0 -20 20.5 -36.5t68.5 -18.5v-30h-326zM386 418h282 l21 356zM676 1296q0 45 31.5 76t75.5 31t75.5 -31t31.5 -76q0 -44 -31.5 -75.5t-75.5 -31.5t-75.5 31.5t-31.5 75.5zM976 1296q0 44 31 75.5t75 31.5q45 0 76 -31.5t31 -75.5t-31.5 -75t-75.5 -31t-75 31t-31 75z" />
<glyph unicode="&#xc5;" horiz-adv-x="1100" d="M-93 0l8 30q43 7 77 30q45 33 130 133l773 924h36l-36 -894q-2 -70 -2 -85q0 -54 22 -79t74 -29l-9 -30h-472l9 30q70 6 80 11q23 11 41.5 47t22.5 125l7 139h-338l-68 -84l-77 -93q-22 -29 -33 -53q-8 -19 -8 -37q0 -20 20.5 -36.5t68.5 -18.5v-30h-326zM386 418h282 l21 356zM748 1224q0 70 49 119t119 49t118.5 -49t48.5 -119q0 -69 -48.5 -118t-118.5 -49q-69 0 -118.5 49t-49.5 118zM809 1224q0 -44 31.5 -75.5t75.5 -31.5q45 0 76.5 31.5t31.5 75.5q0 45 -31.5 76.5t-76.5 31.5q-44 0 -75.5 -31.5t-31.5 -76.5z" />
<glyph unicode="&#xc6;" horiz-adv-x="1556" d="M-93 0l9 30q45 10 78 35q49 35 121 125l570 704q49 60 56 73q10 21 10 41q0 23 -22 37.5t-113 16.5l12 30h952l-67 -275h-32q0 103 -63 158t-231 55h-79l-125 -425h38q139 0 205 38t113 136h30l-123 -423h-29q7 32 7 51q0 41 -23 82q-18 30 -51 42t-134 12h-50l-97 -328 q-21 -73 -21 -101q0 -21 18.5 -35t64.5 -14q156 0 271 57.5t216 174.5h32l-111 -297h-891l8 30q73 0 104.5 26t67.5 140l57 177h-344l-107 -128q-87 -106 -87 -162q0 -22 16.5 -35t70.5 -18v-30h-327zM392 437h310l173 593z" />
<glyph unicode="&#xc7;" horiz-adv-x="1100" d="M108 407q0 180 95.5 343.5t275.5 265t358 101.5q68 0 168 -29q52 -15 72 -15q40 0 81 44h30l-80 -347h-32q-5 141 -69 211t-167 70q-111 0 -221.5 -95t-187.5 -291q-62 -159 -62 -313q0 -139 68.5 -211.5t186.5 -72.5q96 0 174.5 41.5t159.5 136.5h39 q-100 -150 -202 -210.5t-249 -60.5q-197 0 -317.5 119.5t-120.5 312.5zM304 -279l10 25q60 -11 90 -11q54 0 83 24.5t29 58.5q0 28 -18.5 47t-43.5 19q-17 0 -44 -6l-10 24l135 98h61l-55 -42q66 -9 97.5 -42.5t31.5 -79.5q0 -57 -50 -98t-161 -41q-89 0 -155 24z" />
<glyph unicode="&#xc8;" horiz-adv-x="1100" d="M-58 0l10 30q82 0 119.5 31t68.5 136l205 703q17 59 17 93q0 30 -21.5 46.5t-98.5 22.5l8 30h871l-70 -273h-29q-4 80 -25 113q-34 52 -90 75.5t-182 23.5h-102l-121 -423h37q146 0 213 38.5t114 136.5h30l-122 -425h-29q8 43 8 69q0 45 -26.5 73t-68.5 40q-27 8 -113 8 h-63l-104 -366q-14 -48 -14 -72q0 -18 18 -29q25 -17 97 -17q138 0 259.5 58.5t217.5 176.5h33l-113 -299h-934zM510 1456h237l86 -280h-63z" />
<glyph unicode="&#xc9;" horiz-adv-x="1100" d="M-58 0l10 30q82 0 119.5 31t68.5 136l205 703q17 59 17 93q0 30 -21.5 46.5t-98.5 22.5l8 30h871l-70 -273h-29q-4 80 -25 113q-34 52 -90 75.5t-182 23.5h-102l-121 -423h37q146 0 213 38.5t114 136.5h30l-122 -425h-29q8 43 8 69q0 45 -26.5 73t-68.5 40q-27 8 -113 8 h-63l-104 -366q-14 -48 -14 -72q0 -18 18 -29q25 -17 97 -17q138 0 259.5 58.5t217.5 176.5h33l-113 -299h-934zM678 1157l95 282h248l-271 -282h-72z" />
<glyph unicode="&#xca;" horiz-adv-x="1100" d="M-58 0l10 30q82 0 119.5 31t68.5 136l205 703q17 59 17 93q0 30 -21.5 46.5t-98.5 22.5l8 30h871l-70 -273h-29q-4 80 -25 113q-34 52 -90 75.5t-182 23.5h-102l-121 -423h37q146 0 213 38.5t114 136.5h30l-122 -425h-29q8 43 8 69q0 45 -26.5 73t-68.5 40q-27 8 -113 8 h-63l-104 -366q-14 -48 -14 -72q0 -18 18 -29q25 -17 97 -17q138 0 259.5 58.5t217.5 176.5h33l-113 -299h-934zM473 1170l246 274h183l82 -274h-82l-108 163l-237 -163h-84z" />
<glyph unicode="&#xcb;" horiz-adv-x="1100" d="M-58 0l10 30q82 0 119.5 31t68.5 136l205 703q17 59 17 93q0 30 -21.5 46.5t-98.5 22.5l8 30h871l-70 -273h-29q-4 80 -25 113q-34 52 -90 75.5t-182 23.5h-102l-121 -423h37q146 0 213 38.5t114 136.5h30l-122 -425h-29q8 43 8 69q0 45 -26.5 73t-68.5 40q-27 8 -113 8 h-63l-104 -366q-14 -48 -14 -72q0 -18 18 -29q25 -17 97 -17q138 0 259.5 58.5t217.5 176.5h33l-113 -299h-934zM510 1296q0 45 31.5 76t75.5 31t75.5 -31t31.5 -76q0 -44 -31.5 -75.5t-75.5 -31.5t-75.5 31.5t-31.5 75.5zM810 1296q0 44 31 75.5t75 31.5q45 0 76 -31.5 t31 -75.5t-31.5 -75t-75.5 -31t-75 31t-31 75z" />
<glyph unicode="&#xcc;" horiz-adv-x="642" d="M-58 0l9 30q81 0 119 31t68 135l202 699q18 65 18 98q0 29 -22.5 46t-107.5 23l9 30h533l-11 -30q-72 0 -110.5 -32.5t-67.5 -134.5l-199 -699q-22 -74 -22 -99q0 -29 22 -45q29 -21 110 -22l-8 -30h-542zM327 1456h237l86 -280h-63z" />
<glyph unicode="&#xcd;" horiz-adv-x="642" d="M-58 0l9 30q81 0 119 31t68 135l202 699q18 65 18 98q0 29 -22.5 46t-107.5 23l9 30h533l-11 -30q-72 0 -110.5 -32.5t-67.5 -134.5l-199 -699q-22 -74 -22 -99q0 -29 22 -45q29 -21 110 -22l-8 -30h-542zM488 1157l95 282h248l-271 -282h-72z" />
<glyph unicode="&#xce;" horiz-adv-x="642" d="M-58 0l9 30q81 0 119 31t68 135l202 699q18 65 18 98q0 29 -22.5 46t-107.5 23l9 30h533l-11 -30q-72 0 -110.5 -32.5t-67.5 -134.5l-199 -699q-22 -74 -22 -99q0 -29 22 -45q29 -21 110 -22l-8 -30h-542zM261 1170l246 274h183l82 -274h-82l-108 163l-237 -163h-84z" />
<glyph unicode="&#xcf;" horiz-adv-x="642" d="M-58 0l9 30q81 0 119 31t68 135l202 699q18 65 18 98q0 29 -22.5 46t-107.5 23l9 30h533l-11 -30q-72 0 -110.5 -32.5t-67.5 -134.5l-199 -699q-22 -74 -22 -99q0 -29 22 -45q29 -21 110 -22l-8 -30h-542zM289 1296q0 45 31.5 76t75.5 31t75.5 -31t31.5 -76 q0 -44 -31.5 -75.5t-75.5 -31.5t-75.5 31.5t-31.5 75.5zM589 1296q0 44 31 75.5t75 31.5q45 0 76 -31.5t31 -75.5t-31.5 -75t-75.5 -31t-75 31t-31 75z" />
<glyph unicode="&#xd0;" horiz-adv-x="1191" d="M-53 0l8 31q78 0 116 30.5t65 122.5l101 360h-141l18 61h144l76 269q25 86 25 120q0 31 -26.5 50.5t-104.5 20.5l9 27h369q297 0 429 -120.5t132 -334.5q0 -153 -62 -256q-120 -201 -283.5 -291t-418.5 -90h-456zM366 122q0 -26 22.5 -44t74.5 -18q186 0 317 212 q114 183 114 413q0 176 -78.5 262.5t-192.5 82.5l-124 -425h248l-18 -61h-247l-100 -345q-16 -53 -16 -77z" />
<glyph unicode="&#xd1;" horiz-adv-x="1191" d="M-53 0l7 30q46 0 65 8q34 13 66.5 49.5t52.5 105.5l231 793q-43 48 -72 61.5t-87 14.5l9 30h369l341 -728l154 528q12 43 12 77q0 40 -25.5 64.5t-87.5 28.5l9 30h346l-8 -30q-66 -4 -109 -37t-73 -133l-266 -904h-31l-438 931l-212 -726q-10 -38 -10 -67q0 -44 28.5 -70 t91.5 -26l-7 -30h-356zM550 1165q6 116 53.5 169.5t107.5 53.5q64 0 171 -52q45 -21 65 -21q24 0 40.5 16.5t20.5 56.5h51q-2 -112 -49 -168t-105 -56q-57 0 -171 52q-48 22 -70 22q-23 0 -39.5 -17t-21.5 -56h-53z" />
<glyph unicode="&#xd2;" horiz-adv-x="1191" d="M88 357q0 179 102 360.5t275.5 290.5t342.5 109q99 0 188 -49.5t138.5 -139t49.5 -180.5q0 -204 -129.5 -409t-291.5 -296q-122 -69 -299 -69q-132 0 -213.5 54t-122 147.5t-40.5 181.5zM345 237q0 -98 42.5 -148t109.5 -50q88 0 150 58q123 117 201 343t78 402 q0 110 -41.5 159.5t-102.5 49.5q-64 0 -108.5 -23t-93 -76.5t-98.5 -154t-93.5 -272.5t-43.5 -288zM592 1456h237l86 -280h-63z" />
<glyph unicode="&#xd3;" horiz-adv-x="1191" d="M88 357q0 179 102 360.5t275.5 290.5t342.5 109q99 0 188 -49.5t138.5 -139t49.5 -180.5q0 -204 -129.5 -409t-291.5 -296q-122 -69 -299 -69q-132 0 -213.5 54t-122 147.5t-40.5 181.5zM345 237q0 -98 42.5 -148t109.5 -50q88 0 150 58q123 117 201 343t78 402 q0 110 -41.5 159.5t-102.5 49.5q-64 0 -108.5 -23t-93 -76.5t-98.5 -154t-93.5 -272.5t-43.5 -288zM711 1180l95 282h248l-271 -282h-72z" />
<glyph unicode="&#xd4;" horiz-adv-x="1191" d="M88 357q0 179 102 360.5t275.5 290.5t342.5 109q99 0 188 -49.5t138.5 -139t49.5 -180.5q0 -204 -129.5 -409t-291.5 -296q-122 -69 -299 -69q-132 0 -213.5 54t-122 147.5t-40.5 181.5zM345 237q0 -98 42.5 -148t109.5 -50q88 0 150 58q123 117 201 343t78 402 q0 110 -41.5 159.5t-102.5 49.5q-64 0 -108.5 -23t-93 -76.5t-98.5 -154t-93.5 -272.5t-43.5 -288zM527 1150l246 274h183l82 -274h-82l-108 163l-237 -163h-84z" />
<glyph unicode="&#xd5;" horiz-adv-x="1191" d="M88 357q0 179 102 360.5t275.5 290.5t342.5 109q99 0 188 -49.5t138.5 -139t49.5 -180.5q0 -204 -129.5 -409t-291.5 -296q-122 -69 -299 -69q-132 0 -213.5 54t-122 147.5t-40.5 181.5zM345 237q0 -98 42.5 -148t109.5 -50q88 0 150 58q123 117 201 343t78 402 q0 110 -41.5 159.5t-102.5 49.5q-64 0 -108.5 -23t-93 -76.5t-98.5 -154t-93.5 -272.5t-43.5 -288zM577 1165q6 116 53.5 169.5t107.5 53.5q64 0 171 -52q45 -21 65 -21q24 0 40.5 16.5t20.5 56.5h51q-2 -112 -49 -168t-105 -56q-57 0 -171 52q-48 22 -70 22 q-23 0 -39.5 -17t-21.5 -56h-53z" />
<glyph unicode="&#xd6;" horiz-adv-x="1191" d="M88 357q0 179 102 360.5t275.5 290.5t342.5 109q99 0 188 -49.5t138.5 -139t49.5 -180.5q0 -204 -129.5 -409t-291.5 -296q-122 -69 -299 -69q-132 0 -213.5 54t-122 147.5t-40.5 181.5zM345 237q0 -98 42.5 -148t109.5 -50q88 0 150 58q123 117 201 343t78 402 q0 110 -41.5 159.5t-102.5 49.5q-64 0 -108.5 -23t-93 -76.5t-98.5 -154t-93.5 -272.5t-43.5 -288zM576 1276q0 45 31.5 76t75.5 31t75.5 -31t31.5 -76q0 -44 -31.5 -75.5t-75.5 -31.5t-75.5 31.5t-31.5 75.5zM876 1276q0 44 31 75.5t75 31.5q45 0 76 -31.5t31 -75.5 t-31.5 -75t-75.5 -31t-75 31t-31 75z" />
<glyph unicode="&#xd7;" horiz-adv-x="939" d="M124 820l75 75l274 -274l273 273l74 -74l-273 -273l274 -274l-75 -75l-273 274l-273 -272l-74 75l272 271z" />
<glyph unicode="&#xd8;" horiz-adv-x="1191" d="M68 17l99 101q-43 65 -60.5 117.5t-17.5 118.5q0 185 101 366.5t267.5 289t335.5 107.5q83 0 150 -25q53 -21 118 -73l95 98l42 -45l-98 -97q46 -65 64.5 -117.5t18.5 -112.5q0 -183 -108.5 -368t-277.5 -294t-338 -109q-76 0 -132.5 22.5t-119.5 76.5l-96 -98zM345 213 q13 -96 51.5 -134t100.5 -38q81 0 132 41q102 81 189.5 286t104.5 429zM345 298l578 581q-10 97 -48 135.5t-101 38.5q-78 0 -132 -39q-97 -71 -182.5 -265t-114.5 -451z" />
<glyph unicode="&#xd9;" horiz-adv-x="1191" d="M155 249q0 57 32 169l138 478q19 64 19 96q0 30 -23 47t-107 23l9 30h544l-9 -30q-79 0 -120.5 -34t-69.5 -132l-140 -478q-34 -120 -34 -193q0 -66 53 -115t148 -49q87 0 147.5 32t101.5 89q53 76 95 219l142 495q12 43 12 71q0 50 -35 76q-25 19 -103 19l9 30h369 l-7 -30q-64 -5 -98 -31q-56 -41 -83 -135l-145 -501q-68 -234 -184 -327t-294 -93q-102 0 -179 29t-113.5 65t-55.5 90t-19 90zM601 1456h237l86 -280h-63z" />
<glyph unicode="&#xda;" horiz-adv-x="1191" d="M155 249q0 57 32 169l138 478q19 64 19 96q0 30 -23 47t-107 23l9 30h544l-9 -30q-79 0 -120.5 -34t-69.5 -132l-140 -478q-34 -120 -34 -193q0 -66 53 -115t148 -49q87 0 147.5 32t101.5 89q53 76 95 219l142 495q12 43 12 71q0 50 -35 76q-25 19 -103 19l9 30h369 l-7 -30q-64 -5 -98 -31q-56 -41 -83 -135l-145 -501q-68 -234 -184 -327t-294 -93q-102 0 -179 29t-113.5 65t-55.5 90t-19 90zM691 1180l95 282h248l-271 -282h-72z" />
<glyph unicode="&#xdb;" horiz-adv-x="1191" d="M155 249q0 57 32 169l138 478q19 64 19 96q0 30 -23 47t-107 23l9 30h544l-9 -30q-79 0 -120.5 -34t-69.5 -132l-140 -478q-34 -120 -34 -193q0 -66 53 -115t148 -49q87 0 147.5 32t101.5 89q53 76 95 219l142 495q12 43 12 71q0 50 -35 76q-25 19 -103 19l9 30h369 l-7 -30q-64 -5 -98 -31q-56 -41 -83 -135l-145 -501q-68 -234 -184 -327t-294 -93q-102 0 -179 29t-113.5 65t-55.5 90t-19 90zM502 1150l246 274h183l82 -274h-82l-108 163l-237 -163h-84z" />
<glyph unicode="&#xdc;" horiz-adv-x="1191" d="M155 249q0 57 32 169l138 478q19 64 19 96q0 30 -23 47t-107 23l9 30h544l-9 -30q-79 0 -120.5 -34t-69.5 -132l-140 -478q-34 -120 -34 -193q0 -66 53 -115t148 -49q87 0 147.5 32t101.5 89q53 76 95 219l142 495q12 43 12 71q0 50 -35 76q-25 19 -103 19l9 30h369 l-7 -30q-64 -5 -98 -31q-56 -41 -83 -135l-145 -501q-68 -234 -184 -327t-294 -93q-102 0 -179 29t-113.5 65t-55.5 90t-19 90zM532 1276q0 45 31.5 76t75.5 31t75.5 -31t31.5 -76q0 -44 -31.5 -75.5t-75.5 -31.5t-75.5 31.5t-31.5 75.5zM832 1276q0 44 31 75.5t75 31.5 q45 0 76 -31.5t31 -75.5t-31.5 -75t-75.5 -31t-75 31t-31 75z" />
<glyph unicode="&#xdd;" horiz-adv-x="1007" d="M153 0l8 30q61 -1 98 16.5t56 44.5q13 19 38 103l83 288l-91 398q-24 103 -57 141q-25 29 -91 41l9 30h524l-10 -30q-76 0 -111 -31t-35 -74q0 -26 14 -92l71 -323l177 243q67 93 84 131.5t17 67.5t-21.5 50.5t-70.5 27.5l9 30h328v-30q-45 -5 -77 -29t-125 -153 l-310 -427l-73 -253q-23 -78 -23 -91q0 -34 26.5 -56.5t89.5 -22.5h30l-8 -30h-559zM743 1157l95 282h248l-271 -282h-72z" />
<glyph unicode="&#xde;" horiz-adv-x="1007" d="M-51 0l9 30q79 1 116 30.5t65 127.5l199 685q25 87 25 124q0 29 -23.5 46t-97.5 19l8 30h521l-9 -30q-75 1 -113.5 -29.5t-66.5 -124.5l-18 -62h35q99 0 140 -6q80 -12 134.5 -43.5t87 -85.5t32.5 -117q0 -97 -57.5 -180t-160.5 -126t-336 -43h-50l-8 -29 q-25 -87 -25 -118q0 -27 22.5 -44.5t98.5 -23.5l-7 -30h-521zM407 308q122 0 166 17q66 25 116.5 107t50.5 190q0 59 -25 97.5t-71 53.5q-26 9 -100 9z" />
<glyph unicode="&#xdf;" d="M-281 -268q0 30 24 52t64 22q32 0 46 -14q19 -18 19 -43q0 -15 -10 -28q-16 -20 -16 -26q0 -4 5 -8q7 -5 14 -5q15 0 27.5 6t20.5 16q19 21 35 59q9 21 46 145l63 211l130 489q63 239 110.5 323.5t128 135t177.5 50.5q115 0 173 -54.5t58 -145.5q0 -83 -43.5 -149 t-119.5 -103q-51 -26 -155 -40q89 -16 131.5 -44t69.5 -82t27 -116q0 -169 -114 -304q-85 -102 -196 -102q-61 0 -96 34.5t-35 86.5q0 42 22 67t51 25q21 0 34.5 -15.5t13.5 -41.5q0 -29 -11 -58.5t-11 -45.5q0 -8 5.5 -13.5t14.5 -5.5q14 0 22 8q16 17 54 158 q58 217 58 295q0 42 -13 80q-9 25 -29 40q-13 10 -50 17l9 30q61 19 88 46q42 41 72.5 121.5t30.5 170.5q0 54 -21 78t-50 24q-41 0 -74 -51t-84 -248l-131 -496q-75 -288 -116 -377q-58 -121 -146.5 -191.5t-197.5 -70.5q-63 0 -94 26.5t-31 61.5z" />
<glyph unicode="&#xe0;" d="M32 175q0 114 69.5 261t181.5 236q93 74 174 74q45 0 72.5 -26t40.5 -95l29 99l191 11l-156 -535l-17 -66q-2 -12 -2 -17q0 -10 7 -17t14 -7q17 0 47 25q12 11 58 74l28 -14q-57 -105 -122 -153t-140 -48q-46 0 -70 24t-24 60q0 32 26 117l19 65q-93 -160 -179 -227 q-50 -39 -107 -39q-74 0 -107 61t-33 137zM242 206q0 -43 14 -61.5t31 -18.5q37 0 74 41q53 60 95 146q76 151 76 269q0 65 -20 94q-15 20 -39 20q-25 0 -52 -24q-54 -50 -116.5 -202.5t-62.5 -263.5zM343 1117h237l86 -280h-63z" />
<glyph unicode="&#xe1;" d="M32 175q0 114 69.5 261t181.5 236q93 74 174 74q45 0 72.5 -26t40.5 -95l29 99l191 11l-156 -535l-17 -66q-2 -12 -2 -17q0 -10 7 -17t14 -7q17 0 47 25q12 11 58 74l28 -14q-57 -105 -122 -153t-140 -48q-46 0 -70 24t-24 60q0 32 26 117l19 65q-93 -160 -179 -227 q-50 -39 -107 -39q-74 0 -107 61t-33 137zM242 206q0 -43 14 -61.5t31 -18.5q37 0 74 41q53 60 95 146q76 151 76 269q0 65 -20 94q-15 20 -39 20q-25 0 -52 -24q-54 -50 -116.5 -202.5t-62.5 -263.5zM453 835l95 282h248l-271 -282h-72z" />
<glyph unicode="&#xe2;" d="M32 175q0 114 69.5 261t181.5 236q93 74 174 74q45 0 72.5 -26t40.5 -95l29 99l191 11l-156 -535l-17 -66q-2 -12 -2 -17q0 -10 7 -17t14 -7q17 0 47 25q12 11 58 74l28 -14q-57 -105 -122 -153t-140 -48q-46 0 -70 24t-24 60q0 32 26 117l19 65q-93 -160 -179 -227 q-50 -39 -107 -39q-74 0 -107 61t-33 137zM242 206q0 -43 14 -61.5t31 -18.5q37 0 74 41q53 60 95 146q76 151 76 269q0 65 -20 94q-15 20 -39 20q-25 0 -52 -24q-54 -50 -116.5 -202.5t-62.5 -263.5zM259 843l246 274h183l82 -274h-82l-108 163l-237 -163h-84z" />
<glyph unicode="&#xe3;" d="M32 175q0 114 69.5 261t181.5 236q93 74 174 74q45 0 72.5 -26t40.5 -95l29 99l191 11l-156 -535l-17 -66q-2 -12 -2 -17q0 -10 7 -17t14 -7q17 0 47 25q12 11 58 74l28 -14q-57 -105 -122 -153t-140 -48q-46 0 -70 24t-24 60q0 32 26 117l19 65q-93 -160 -179 -227 q-50 -39 -107 -39q-74 0 -107 61t-33 137zM242 206q0 -43 14 -61.5t31 -18.5q37 0 74 41q53 60 95 146q76 151 76 269q0 65 -20 94q-15 20 -39 20q-25 0 -52 -24q-54 -50 -116.5 -202.5t-62.5 -263.5zM285 869q6 116 53.5 169.5t107.5 53.5q64 0 171 -52q45 -21 65 -21 q24 0 40.5 16.5t20.5 56.5h51q-2 -112 -49 -168t-105 -56q-57 0 -171 52q-48 22 -70 22q-23 0 -39.5 -17t-21.5 -56h-53z" />
<glyph unicode="&#xe4;" d="M32 175q0 114 69.5 261t181.5 236q93 74 174 74q45 0 72.5 -26t40.5 -95l29 99l191 11l-156 -535l-17 -66q-2 -12 -2 -17q0 -10 7 -17t14 -7q17 0 47 25q12 11 58 74l28 -14q-57 -105 -122 -153t-140 -48q-46 0 -70 24t-24 60q0 32 26 117l19 65q-93 -160 -179 -227 q-50 -39 -107 -39q-74 0 -107 61t-33 137zM242 206q0 -43 14 -61.5t31 -18.5q37 0 74 41q53 60 95 146q76 151 76 269q0 65 -20 94q-15 20 -39 20q-25 0 -52 -24q-54 -50 -116.5 -202.5t-62.5 -263.5zM289 977q0 45 31.5 76t75.5 31t75.5 -31t31.5 -76q0 -44 -31.5 -75.5 t-75.5 -31.5t-75.5 31.5t-31.5 75.5zM589 977q0 44 31 75.5t75 31.5q45 0 76 -31.5t31 -75.5t-31.5 -75t-75.5 -31t-75 31t-31 75z" />
<glyph unicode="&#xe5;" d="M32 175q0 114 69.5 261t181.5 236q93 74 174 74q45 0 72.5 -26t40.5 -95l29 99l191 11l-156 -535l-17 -66q-2 -12 -2 -17q0 -10 7 -17t14 -7q17 0 47 25q12 11 58 74l28 -14q-57 -105 -122 -153t-140 -48q-46 0 -70 24t-24 60q0 32 26 117l19 65q-93 -160 -179 -227 q-50 -39 -107 -39q-74 0 -107 61t-33 137zM242 206q0 -43 14 -61.5t31 -18.5q37 0 74 41q53 60 95 146q76 151 76 269q0 65 -20 94q-15 20 -39 20q-25 0 -52 -24q-54 -50 -116.5 -202.5t-62.5 -263.5zM407 980q0 70 49 119t119 49t118.5 -49t48.5 -119q0 -69 -48.5 -118 t-118.5 -49q-69 0 -118.5 49t-49.5 118zM468 980q0 -44 31.5 -75.5t75.5 -31.5q45 0 76.5 31.5t31.5 75.5q0 45 -31.5 76.5t-76.5 31.5q-44 0 -75.5 -31.5t-31.5 -76.5z" />
<glyph unicode="&#xe6;" horiz-adv-x="1191" d="M31 165q0 119 58 243t137.5 204t146.5 113q45 21 96 21t81 -26t46 -98l36 102l171 10l-27 -85q79 55 136 76t122 21q76 0 111.5 -31t35.5 -80q0 -112 -115.5 -212.5t-369.5 -121.5q-5 -44 -5 -74q0 -68 39.5 -108t98.5 -40q128 0 252 133l24 -25q-95 -112 -184 -161 t-188 -49q-90 0 -147 31.5t-81 82.5t-28 136q-70 -104 -112 -149q-57 -59 -108 -84q-35 -17 -78 -17q-62 0 -105 49.5t-43 138.5zM242 207q0 -43 17 -63.5t40 -20.5q24 0 60 32q72 63 134.5 198.5t62.5 229.5q0 58 -26 93q-15 22 -41 22q-28 0 -45 -12q-46 -32 -92 -113.5 t-89 -229.5q-21 -70 -21 -136zM704 345q100 14 155.5 49t96.5 108t41 128q0 28 -14.5 44.5t-36.5 16.5q-41 0 -93 -57q-89 -95 -149 -289z" />
<glyph unicode="&#xe7;" horiz-adv-x="732" d="M43 210q0 132 72 259.5t189.5 202t230.5 74.5q91 0 137 -40t46 -100q0 -54 -34.5 -91.5t-77.5 -37.5q-37 0 -61.5 24t-24.5 57q0 43 44 76q29 22 29 39q0 14 -12 23q-16 13 -42 13q-67 0 -127 -55q-79 -72 -120.5 -183t-41.5 -211q0 -79 42.5 -126t101.5 -47 q51 0 111 26.5t114 80.5l24 -22q-78 -93 -154 -137q-100 -58 -208 -58q-73 0 -128.5 31t-82.5 87t-27 115zM60 -279l10 25q60 -11 90 -11q54 0 83 24.5t29 58.5q0 28 -18.5 47t-43.5 19q-17 0 -44 -6l-10 24l135 98h61l-55 -42q66 -9 97.5 -42.5t31.5 -79.5q0 -57 -50 -98 t-161 -41q-89 0 -155 24z" />
<glyph unicode="&#xe8;" horiz-adv-x="732" d="M36 191q0 132 77 264t209.5 211.5t265.5 79.5q68 0 102.5 -32t34.5 -81q0 -59 -34 -115q-46 -75 -117 -121.5t-159 -70.5q-58 -16 -157 -24q-8 -52 -8 -86q0 -61 35 -97t94 -36q57 0 113.5 27.5t131.5 95.5l24 -22q-93 -112 -180.5 -159.5t-193.5 -47.5 q-135 0 -186.5 64.5t-51.5 149.5zM265 344q71 10 110 28t76.5 58t64.5 101t27 114q0 22 -12.5 35t-31.5 13q-39 0 -87 -54q-88 -98 -147 -295zM310 1117h237l86 -280h-63z" />
<glyph unicode="&#xe9;" horiz-adv-x="732" d="M36 191q0 132 77 264t209.5 211.5t265.5 79.5q68 0 102.5 -32t34.5 -81q0 -59 -34 -115q-46 -75 -117 -121.5t-159 -70.5q-58 -16 -157 -24q-8 -52 -8 -86q0 -61 35 -97t94 -36q57 0 113.5 27.5t131.5 95.5l24 -22q-93 -112 -180.5 -159.5t-193.5 -47.5 q-135 0 -186.5 64.5t-51.5 149.5zM265 344q71 10 110 28t76.5 58t64.5 101t27 114q0 22 -12.5 35t-31.5 13q-39 0 -87 -54q-88 -98 -147 -295zM492 835l95 282h248l-271 -282h-72z" />
<glyph unicode="&#xea;" horiz-adv-x="732" d="M36 191q0 132 77 264t209.5 211.5t265.5 79.5q68 0 102.5 -32t34.5 -81q0 -59 -34 -115q-46 -75 -117 -121.5t-159 -70.5q-58 -16 -157 -24q-8 -52 -8 -86q0 -61 35 -97t94 -36q57 0 113.5 27.5t131.5 95.5l24 -22q-93 -112 -180.5 -159.5t-193.5 -47.5 q-135 0 -186.5 64.5t-51.5 149.5zM216 843l246 274h183l82 -274h-82l-108 163l-237 -163h-84zM265 344q71 10 110 28t76.5 58t64.5 101t27 114q0 22 -12.5 35t-31.5 13q-39 0 -87 -54q-88 -98 -147 -295z" />
<glyph unicode="&#xeb;" horiz-adv-x="732" d="M36 191q0 132 77 264t209.5 211.5t265.5 79.5q68 0 102.5 -32t34.5 -81q0 -59 -34 -115q-46 -75 -117 -121.5t-159 -70.5q-58 -16 -157 -24q-8 -52 -8 -86q0 -61 35 -97t94 -36q57 0 113.5 27.5t131.5 95.5l24 -22q-93 -112 -180.5 -159.5t-193.5 -47.5 q-135 0 -186.5 64.5t-51.5 149.5zM246 977q0 45 31.5 76t75.5 31t75.5 -31t31.5 -76q0 -44 -31.5 -75.5t-75.5 -31.5t-75.5 31.5t-31.5 75.5zM265 344q71 10 110 28t76.5 58t64.5 101t27 114q0 22 -12.5 35t-31.5 13q-39 0 -87 -54q-88 -98 -147 -295zM546 977q0 44 31 75.5 t75 31.5q45 0 76 -31.5t31 -75.5t-31.5 -75t-75.5 -31t-75 31t-31 75z" />
<glyph unicode="&#xec;" horiz-adv-x="458" d="M36 81q0 30 14 76l112 385q16 55 16 83q0 18 -15.5 32t-41.5 14q-12 0 -29 -1l10 32l273 44h48l-165 -572q-13 -49 -13 -65q0 -8 7 -16t15 -8q14 0 28 12q36 30 87 108l27 -16q-122 -212 -258 -212q-53 0 -84 29.5t-31 74.5zM125 1117h237l86 -280h-63z" />
<glyph unicode="&#xed;" horiz-adv-x="458" d="M36 81q0 30 14 76l112 385q16 55 16 83q0 18 -15.5 32t-41.5 14q-12 0 -29 -1l10 32l273 44h48l-165 -572q-13 -49 -13 -65q0 -8 7 -16t15 -8q14 0 28 12q36 30 87 108l27 -16q-122 -212 -258 -212q-53 0 -84 29.5t-31 74.5zM253 835l95 282h248l-271 -282h-72z" />
<glyph unicode="&#xee;" horiz-adv-x="458" d="M36 81q0 30 14 76l112 385q16 55 16 83q0 18 -15.5 32t-41.5 14q-12 0 -29 -1l10 32l273 44h48l-165 -572q-13 -49 -13 -65q0 -8 7 -16t15 -8q14 0 28 12q36 30 87 108l27 -16q-122 -212 -258 -212q-53 0 -84 29.5t-31 74.5zM51 843l246 274h183l82 -274h-82l-108 163 l-237 -163h-84z" />
<glyph unicode="&#xef;" horiz-adv-x="458" d="M36 81q0 30 14 76l112 385q16 55 16 83q0 18 -15.5 32t-41.5 14q-12 0 -29 -1l10 32l273 44h48l-165 -572q-13 -49 -13 -65q0 -8 7 -16t15 -8q14 0 28 12q36 30 87 108l27 -16q-122 -212 -258 -212q-53 0 -84 29.5t-31 74.5zM81 977q0 45 31.5 76t75.5 31t75.5 -31 t31.5 -76q0 -44 -31.5 -75.5t-75.5 -31.5t-75.5 31.5t-31.5 75.5zM381 977q0 44 31 75.5t75 31.5q45 0 76 -31.5t31 -75.5t-31.5 -75t-75.5 -31t-75 31t-31 75z" />
<glyph unicode="&#xf0;" d="M42 206q0 130 65.5 252t175 194t191.5 72q58 0 114 -37q0 75 -6 121t-23 111l-172 -93l-23 46l178 97q-26 55 -38.5 75.5t-37.5 51.5l23 21q56 -44 119 -113l170 92l24 -46l-163 -86q139 -200 139 -419q0 -134 -58 -253q-45 -92 -117.5 -162.5t-156 -111.5t-164.5 -41 q-115 0 -177.5 61.5t-62.5 167.5zM238 112q0 -46 21.5 -69.5t54.5 -23.5q35 0 68 30q62 56 114 202q76 213 76 338q0 45 -20.5 68.5t-51.5 23.5q-42 0 -73 -27q-54 -49 -114 -210q-75 -205 -75 -332z" />
<glyph unicode="&#xf1;" horiz-adv-x="917" d="M21 0l150 517q22 76 22 108q0 14 -6.5 23.5t-21 14.5t-54.5 5l9 31l271 47h49l-99 -345q100 151 150 207q73 80 126.5 109t99.5 29q42 0 72 -31t30 -81q0 -45 -20 -109l-103 -344q-13 -45 -13 -59q0 -8 6.5 -14.5t12.5 -6.5q8 0 17 7q28 23 57 66q7 11 23 34l31 -19 q-118 -199 -249 -199q-50 0 -78 26t-28 65q0 33 19 100l101 344q10 34 10 50q0 9 -7 15.5t-17 6.5q-30 0 -74 -42q-111 -106 -215 -316l-66 -239h-205zM284 869q6 116 53.5 169.5t107.5 53.5q64 0 171 -52q45 -21 65 -21q24 0 40.5 16.5t20.5 56.5h51q-2 -112 -49 -168 t-105 -56q-57 0 -171 52q-48 22 -70 22q-23 0 -39.5 -17t-21.5 -56h-53z" />
<glyph unicode="&#xf2;" d="M40 202q0 112 45 210t113.5 170.5t158 118t185.5 45.5q63 0 119 -29.5t84.5 -81.5t28.5 -116q0 -130 -72.5 -260.5t-192 -206t-239.5 -75.5q-110 0 -170 65.5t-60 159.5zM240 105q0 -37 22.5 -61t53.5 -24t55 19q36 29 87.5 130t84.5 223t33 224q0 42 -20.5 65t-46.5 23 q-43 0 -71 -25q-56 -51 -127 -237.5t-71 -336.5zM334 1117h237l86 -280h-63z" />
<glyph unicode="&#xf3;" d="M40 202q0 112 45 210t113.5 170.5t158 118t185.5 45.5q63 0 119 -29.5t84.5 -81.5t28.5 -116q0 -130 -72.5 -260.5t-192 -206t-239.5 -75.5q-110 0 -170 65.5t-60 159.5zM240 105q0 -37 22.5 -61t53.5 -24t55 19q36 29 87.5 130t84.5 223t33 224q0 42 -20.5 65t-46.5 23 q-43 0 -71 -25q-56 -51 -127 -237.5t-71 -336.5zM483 835l95 282h248l-271 -282h-72z" />
<glyph unicode="&#xf4;" d="M40 202q0 112 45 210t113.5 170.5t158 118t185.5 45.5q63 0 119 -29.5t84.5 -81.5t28.5 -116q0 -130 -72.5 -260.5t-192 -206t-239.5 -75.5q-110 0 -170 65.5t-60 159.5zM240 105q0 -37 22.5 -61t53.5 -24t55 19q36 29 87.5 130t84.5 223t33 224q0 42 -20.5 65t-46.5 23 q-43 0 -71 -25q-56 -51 -127 -237.5t-71 -336.5zM259 843l246 274h183l82 -274h-82l-108 163l-237 -163h-84z" />
<glyph unicode="&#xf5;" d="M40 202q0 112 45 210t113.5 170.5t158 118t185.5 45.5q63 0 119 -29.5t84.5 -81.5t28.5 -116q0 -130 -72.5 -260.5t-192 -206t-239.5 -75.5q-110 0 -170 65.5t-60 159.5zM240 105q0 -37 22.5 -61t53.5 -24t55 19q36 29 87.5 130t84.5 223t33 224q0 42 -20.5 65t-46.5 23 q-43 0 -71 -25q-56 -51 -127 -237.5t-71 -336.5zM285 869q6 116 53.5 169.5t107.5 53.5q64 0 171 -52q45 -21 65 -21q24 0 40.5 16.5t20.5 56.5h51q-2 -112 -49 -168t-105 -56q-57 0 -171 52q-48 22 -70 22q-23 0 -39.5 -17t-21.5 -56h-53z" />
<glyph unicode="&#xf6;" d="M40 202q0 112 45 210t113.5 170.5t158 118t185.5 45.5q63 0 119 -29.5t84.5 -81.5t28.5 -116q0 -130 -72.5 -260.5t-192 -206t-239.5 -75.5q-110 0 -170 65.5t-60 159.5zM240 105q0 -37 22.5 -61t53.5 -24t55 19q36 29 87.5 130t84.5 223t33 224q0 42 -20.5 65t-46.5 23 q-43 0 -71 -25q-56 -51 -127 -237.5t-71 -336.5zM289 977q0 45 31.5 76t75.5 31t75.5 -31t31.5 -76q0 -44 -31.5 -75.5t-75.5 -31.5t-75.5 31.5t-31.5 75.5zM589 977q0 44 31 75.5t75 31.5q45 0 76 -31.5t31 -75.5t-31.5 -75t-75.5 -31t-75 31t-31 75z" />
<glyph unicode="&#xf7;" horiz-adv-x="905" d="M40 493v106h880v-106h-880zM398 283q0 33 24 57.5t59 24.5q34 0 58.5 -24.5t24.5 -57.5q0 -35 -24.5 -59t-58.5 -24t-58.5 24t-24.5 59zM399 816q0 34 24.5 58t57.5 24q35 0 59 -24t24 -58t-24 -58t-59 -24q-33 0 -57.5 24t-24.5 58z" />
<glyph unicode="&#xf8;" d="M25 14l55 54q-40 68 -40 139q0 131 72 260t194.5 204t240.5 75q41 0 81 -14.5t79 -44.5l55 54l37 -37l-59 -58q34 -64 34 -125q0 -133 -73.5 -263t-191.5 -205.5t-240 -75.5q-49 0 -87 13q-29 10 -67 39l-54 -52zM239 112q0 -43 22 -67t54 -24q34 0 63 25q53 48 97 148 q23 56 82 272l-316 -311q-2 -25 -2 -43zM253 242l319 313q5 35 5 58q0 42 -20.5 65.5t-50.5 23.5q-31 0 -57 -15.5t-62 -71t-64 -136.5q-6 -18 -70 -237z" />
<glyph unicode="&#xf9;" horiz-adv-x="917" d="M56 89q0 41 20 110l91 322q23 79 23 106q0 12 -6.5 21.5t-21.5 14.5t-55 5l8 31l275 47h48l-156 -547q-12 -38 -12 -52q0 -8 6 -12q7 -6 15 -6q37 0 99 66q89 96 186 275l74 246l203 8l-154 -532q-20 -67 -20 -77q0 -6 6 -13t13 -7q11 0 22 10q29 23 76 94l28 -19 q-112 -203 -247 -203q-50 0 -78.5 25.5t-28.5 66.5q0 44 20 111l40 136q-105 -153 -152 -206q-73 -79 -122.5 -106t-94.5 -27q-43 0 -74 31.5t-31 80.5zM348 1117h237l86 -280h-63z" />
<glyph unicode="&#xfa;" horiz-adv-x="917" d="M56 89q0 41 20 110l91 322q23 79 23 106q0 12 -6.5 21.5t-21.5 14.5t-55 5l8 31l275 47h48l-156 -547q-12 -38 -12 -52q0 -8 6 -12q7 -6 15 -6q37 0 99 66q89 96 186 275l74 246l203 8l-154 -532q-20 -67 -20 -77q0 -6 6 -13t13 -7q11 0 22 10q29 23 76 94l28 -19 q-112 -203 -247 -203q-50 0 -78.5 25.5t-28.5 66.5q0 44 20 111l40 136q-105 -153 -152 -206q-73 -79 -122.5 -106t-94.5 -27q-43 0 -74 31.5t-31 80.5zM454 835l95 282h248l-271 -282h-72z" />
<glyph unicode="&#xfb;" horiz-adv-x="917" d="M56 89q0 41 20 110l91 322q23 79 23 106q0 12 -6.5 21.5t-21.5 14.5t-55 5l8 31l275 47h48l-156 -547q-12 -38 -12 -52q0 -8 6 -12q7 -6 15 -6q37 0 99 66q89 96 186 275l74 246l203 8l-154 -532q-20 -67 -20 -77q0 -6 6 -13t13 -7q11 0 22 10q29 23 76 94l28 -19 q-112 -203 -247 -203q-50 0 -78.5 25.5t-28.5 66.5q0 44 20 111l40 136q-105 -153 -152 -206q-73 -79 -122.5 -106t-94.5 -27q-43 0 -74 31.5t-31 80.5zM272 843l246 274h183l82 -274h-82l-108 163l-237 -163h-84z" />
<glyph unicode="&#xfc;" horiz-adv-x="917" d="M56 89q0 41 20 110l91 322q23 79 23 106q0 12 -6.5 21.5t-21.5 14.5t-55 5l8 31l275 47h48l-156 -547q-12 -38 -12 -52q0 -8 6 -12q7 -6 15 -6q37 0 99 66q89 96 186 275l74 246l203 8l-154 -532q-20 -67 -20 -77q0 -6 6 -13t13 -7q11 0 22 10q29 23 76 94l28 -19 q-112 -203 -247 -203q-50 0 -78.5 25.5t-28.5 66.5q0 44 20 111l40 136q-105 -153 -152 -206q-73 -79 -122.5 -106t-94.5 -27q-43 0 -74 31.5t-31 80.5zM270 977q0 45 31.5 76t75.5 31t75.5 -31t31.5 -76q0 -44 -31.5 -75.5t-75.5 -31.5t-75.5 31.5t-31.5 75.5zM570 977 q0 44 31 75.5t75 31.5q45 0 76 -31.5t31 -75.5t-31.5 -75t-75.5 -31t-75 31t-31 75z" />
<glyph unicode="&#xfd;" horiz-adv-x="732" d="M-155 -247q0 44 29.5 74.5t69.5 30.5q49 0 90 -51q27 -35 45 -35t36 11q24 13 68 59q5 101 5 152q0 70 -7 195l-14 307q-7 84 -36 121q-22 28 -59 28q-13 0 -30 -3v32l248 72q30 -37 42 -70q21 -57 30 -158q17 -198 24 -422q86 113 197 300q34 56 34 106q0 32 -39 60 t-49 43.5t-10 40.5q0 41 29.5 70.5t71.5 29.5q44 0 76.5 -33.5t32.5 -79.5q0 -54 -30 -125.5t-141 -244.5q-143 -221 -279 -383q-88 -103 -142 -148.5t-112 -72.5q-35 -15 -68 -15q-46 0 -79 32.5t-33 76.5zM428 835l95 282h248l-271 -282h-72z" />
<glyph unicode="&#xfe;" d="M-201 -356l8 32q51 1 85 32t65 137l304 1049q21 73 21 106q0 14 -6.5 23.5t-19 13.5t-55.5 3v31l321 46l-144 -502q85 77 139 104t107 27q76 0 117 -58t41 -143q0 -231 -151.5 -399.5t-319.5 -168.5q-31 0 -52 6t-58 25l-40 -145q-23 -83 -23 -123q0 -24 18.5 -39.5 t82.5 -24.5l-7 -32h-433zM225 83q25 -40 44 -53t45 -13q42 0 90 48q74 73 119 199t45 247q0 62 -22 90.5t-53 28.5q-29 0 -53 -15q-37 -21 -86 -78z" />
<glyph unicode="&#xff;" horiz-adv-x="732" d="M-155 -247q0 44 29.5 74.5t69.5 30.5q49 0 90 -51q27 -35 45 -35t36 11q24 13 68 59q5 101 5 152q0 70 -7 195l-14 307q-7 84 -36 121q-22 28 -59 28q-13 0 -30 -3v32l248 72q30 -37 42 -70q21 -57 30 -158q17 -198 24 -422q86 113 197 300q34 56 34 106q0 32 -39 60 t-49 43.5t-10 40.5q0 41 29.5 70.5t71.5 29.5q44 0 76.5 -33.5t32.5 -79.5q0 -54 -30 -125.5t-141 -244.5q-143 -221 -279 -383q-88 -103 -142 -148.5t-112 -72.5q-35 -15 -68 -15q-46 0 -79 32.5t-33 76.5zM217 977q0 45 31.5 76t75.5 31t75.5 -31t31.5 -76 q0 -44 -31.5 -75.5t-75.5 -31.5t-75.5 31.5t-31.5 75.5zM517 977q0 44 31 75.5t75 31.5q45 0 76 -31.5t31 -75.5t-31.5 -75t-75.5 -31t-75 31t-31 75z" />
<glyph unicode="&#x152;" horiz-adv-x="1556" d="M102 374q0 184 98.5 355.5t268.5 271t346 99.5q59 0 150 -5q44 -3 181 -3h434l-69 -273h-31q0 99 -62.5 155.5t-208.5 56.5h-35l-124 -422q128 1 189.5 37t115.5 136h30l-124 -422h-28q8 38 8 66q0 39 -18.5 65.5t-61 42.5t-130.5 14l-90 -311q-27 -95 -27 -126 q0 -17 15 -30.5t44 -13.5q114 0 232 58.5t210 172.5h34l-114 -298h-466q-153 0 -198 -2q-179 -7 -184 -7q-114 0 -204 50t-135.5 137.5t-45.5 195.5zM345 250q0 -75 39 -135t121 -60q71 0 126 51.5t98 198.5l124 430l36 124q7 33 7 69q0 52 -30 82t-80 30q-78 0 -130 -45 q-121 -103 -216 -323t-95 -422z" />
<glyph unicode="&#x153;" horiz-adv-x="1191" d="M37 208q0 131 73.5 258t190.5 203.5t233 76.5q80 0 123.5 -27.5t77.5 -95.5q87 70 151.5 96.5t140.5 26.5q82 0 119 -31.5t37 -80.5q0 -65 -51.5 -141.5t-144 -121.5t-271.5 -68q-13 -49 -13 -80q0 -56 39.5 -98t96.5 -42t114 29t127 97l27 -23q-94 -113 -183 -161 t-191 -48q-77 0 -129 30q-40 23 -79 83q-51 -55 -96 -77q-72 -36 -154 -36q-120 0 -179 65.5t-59 165.5zM234 110q0 -42 23 -66t57 -24q42 0 85 51q60 69 118.5 260.5t58.5 280.5q0 42 -21.5 65t-53.5 23q-33 0 -69 -32q-58 -52 -121 -220q-77 -206 -77 -338zM722 340 q100 24 153 62t88 111t35 133q0 24 -11 35.5t-31 11.5q-40 0 -97 -63q-86 -95 -137 -290z" />
<glyph unicode="&#x178;" horiz-adv-x="1007" d="M153 0l8 30q61 -1 98 16.5t56 44.5q13 19 38 103l83 288l-91 398q-24 103 -57 141q-25 29 -91 41l9 30h524l-10 -30q-76 0 -111 -31t-35 -74q0 -26 14 -92l71 -323l177 243q67 93 84 131.5t17 67.5t-21.5 50.5t-70.5 27.5l9 30h328v-30q-45 -5 -77 -29t-125 -153 l-310 -427l-73 -253q-23 -78 -23 -91q0 -34 26.5 -56.5t89.5 -22.5h30l-8 -30h-559zM502 1296q0 45 31.5 76t75.5 31t75.5 -31t31.5 -76q0 -44 -31.5 -75.5t-75.5 -31.5t-75.5 31.5t-31.5 75.5zM802 1296q0 44 31 75.5t75 31.5q45 0 76 -31.5t31 -75.5t-31.5 -75t-75.5 -31 t-75 31t-31 75z" />
<glyph unicode="&#x2c6;" horiz-adv-x="549" d="M122 843l246 274h183l82 -274h-82l-108 163l-237 -163h-84z" />
<glyph unicode="&#x2dc;" horiz-adv-x="549" d="M147 869q6 116 53.5 169.5t107.5 53.5q64 0 171 -52q45 -21 65 -21q24 0 40.5 16.5t20.5 56.5h51q-2 -112 -49 -168t-105 -56q-57 0 -171 52q-48 22 -70 22q-23 0 -39.5 -17t-21.5 -56h-53z" />
<glyph unicode="&#x2000;" horiz-adv-x="731" />
<glyph unicode="&#x2001;" horiz-adv-x="1462" />
<glyph unicode="&#x2002;" horiz-adv-x="731" />
<glyph unicode="&#x2003;" horiz-adv-x="1462" />
<glyph unicode="&#x2004;" horiz-adv-x="487" />
<glyph unicode="&#x2005;" horiz-adv-x="365" />
<glyph unicode="&#x2006;" horiz-adv-x="243" />
<glyph unicode="&#x2007;" horiz-adv-x="243" />
<glyph unicode="&#x2008;" horiz-adv-x="182" />
<glyph unicode="&#x2009;" horiz-adv-x="292" />
<glyph unicode="&#x200a;" horiz-adv-x="81" />
<glyph unicode="&#x2010;" horiz-adv-x="549" d="M10 278l53 167h468l-50 -167h-471z" />
<glyph unicode="&#x2011;" horiz-adv-x="549" d="M10 278l53 167h468l-50 -167h-471z" />
<glyph unicode="&#x2012;" horiz-adv-x="549" d="M10 278l53 167h468l-50 -167h-471z" />
<glyph unicode="&#x2013;" d="M-12 332v98h851v-98h-851z" />
<glyph unicode="&#x2014;" horiz-adv-x="1649" d="M-16 332v98h1680v-98h-1680z" />
<glyph unicode="&#x2018;" horiz-adv-x="549" d="M234 756q0 101 68 186q86 109 250 175l19 -33q-123 -71 -153 -108q-24 -27 -24 -56q0 -31 41.5 -69t55.5 -65q11 -20 11 -51q0 -53 -39.5 -91t-94.5 -38q-54 0 -94 42.5t-40 107.5z" />
<glyph unicode="&#x2019;" horiz-adv-x="549" d="M237 640q123 69 153 106q23 28 23 57q0 31 -41.5 69t-55.5 65q-10 20 -10 52q0 52 39 90t95 38q53 0 93 -43t40 -106q0 -101 -77 -198.5t-241 -163.5z" />
<glyph unicode="&#x201a;" horiz-adv-x="549" d="M23 -231q123 70 152 106q24 28 24 57q0 31 -41.5 69t-55.5 65q-10 20 -10 52q0 52 39 90t94 38q54 0 94 -43t40 -106q0 -101 -77 -198.5t-241 -163.5z" />
<glyph unicode="&#x201c;" d="M195 753q0 100 61 180q81 105 257 184l19 -33q-113 -60 -152 -107q-26 -31 -26 -59t41.5 -67t56.5 -67q10 -20 10 -47q0 -54 -38.5 -92.5t-95.5 -38.5t-95 41.5t-38 105.5zM550 754q0 100 67 185q86 110 251 178l20 -36q-115 -60 -151 -104q-25 -30 -25 -62q0 -29 44 -69 q62 -55 62 -109t-39 -94t-92 -40q-55 0 -96 44t-41 107z" />
<glyph unicode="&#x201d;" d="M195 638q115 61 151 104q26 31 26 61t-45 70q-62 56 -62 110t39.5 94t92.5 40q54 0 95.5 -44t41.5 -107q0 -99 -68 -184q-85 -109 -251 -177zM551 636q112 60 152 106q26 32 26 60t-41.5 66.5t-55.5 66.5q-11 21 -11 48q0 54 39 92.5t95 38.5t95 -41.5t39 -106.5 q0 -100 -62 -179q-82 -105 -256 -184z" />
<glyph unicode="&#x201e;" d="M-48 -230q115 59 151 103q26 30 26 62q0 29 -45 69q-62 56 -62 110t39.5 94t92.5 40q54 0 95.5 -44t41.5 -107q0 -99 -68 -185q-85 -108 -251 -176zM308 -233q113 60 152 106q25 31 25 59q0 29 -41 67.5t-55 66.5q-11 20 -11 47q0 54 39 92.5t95 38.5t95 -41.5t39 -105.5 q0 -100 -62 -179q-82 -106 -256 -184z" />
<glyph unicode="&#x2022;" horiz-adv-x="577" d="M81 544q0 95 66.5 162.5t163.5 67.5q96 0 162.5 -67.5t66.5 -162.5t-67 -162.5t-162 -67.5q-96 0 -163 67t-67 163z" />
<glyph unicode="&#x2026;" horiz-adv-x="1649" d="M141 114q0 55 39 94.5t95 39.5t95 -39.5t39 -94.5q0 -56 -39.5 -95t-94.5 -39q-56 0 -95 39t-39 95zM691 114q0 55 39 94t94 39q56 0 95 -39t39 -94q0 -56 -39 -95t-95 -39q-55 0 -94 39t-39 95zM1241 112q0 55 39 94.5t94 39.5q56 0 95 -39.5t39 -94.5q0 -56 -39 -95 t-95 -39q-55 0 -94 39t-39 95z" />
<glyph unicode="&#x202f;" horiz-adv-x="292" />
<glyph unicode="&#x2039;" horiz-adv-x="549" d="M97 363l356 371h51l-208 -371l49 -372h-49z" />
<glyph unicode="&#x203a;" horiz-adv-x="549" d="M46 -9l208 371l-50 372h50l199 -372l-356 -371h-51z" />
<glyph unicode="&#x205f;" horiz-adv-x="365" />
<glyph unicode="&#x20ac;" d="M27 464l18 62h77l4 13q7 25 17 54h-76l18 63h83q80 186 234 315q170 143 357 143q88 0 147 -24q17 -7 82 -47l-69 -240h-31q9 45 9 83q0 162 -141 162q-101 0 -199 -128q-79 -102 -142 -264h355l-19 -63h-359q-12 -34 -22 -67h359l-18 -62h-357q-34 -136 -34 -231 q0 -180 122 -180q92 0 170 59q40 30 130 130l29 -29q-97 -114 -158 -157q-107 -79 -241 -79q-283 0 -283 322q0 77 19 165h-81z" />
<glyph unicode="&#x2122;" horiz-adv-x="1649" d="M-2 910v182h625v-182h-28q-3 70 -39.5 105t-116.5 35h-31v-473q0 -68 15 -85q17 -23 68 -23v-27h-365v27q47 4 58.5 10t17.5 23t6 78v470h-28q-77 0 -113.5 -33t-42.5 -107h-26zM712 442v27q46 3 60 10.5t21 24.5t7 74v377q0 57 -7.5 73.5t-22 24.5t-58.5 8v31h296 l186 -399l184 399h279v-31q-38 0 -52.5 -8t-21.5 -24t-7 -76v-380q0 -61 12 -77q20 -23 69 -27v-27h-371v27q59 2 75.5 19.5t16.5 84.5v407l-257 -538h-20l-256 538v-404q0 -54 5 -67q7 -18 25.5 -28.5t62.5 -11.5v-27h-226z" />
<glyph unicode="&#x25fc;" horiz-adv-x="745" d="M0 0v745h745v-745h-745z" />
</font>
</defs>
</svg>
